<svg width="1631" height="488" viewBox="0 0 1631 488" fill="none" xmlns="http://www.w3.org/2000/svg">
<g clip-path="url(#clip0)">
<path d="M368.794 286.48V287.711C368.794 395.243 286.155 482.254 184.603 482.254C83.0507 482.254 0 394.833 0 287.3V10.2608H368.794V286.48Z" fill="#004A8F"/>
<path d="M139.377 359.125C138.966 358.304 138.144 357.483 137.733 356.663C138.144 356.663 140.2 356.663 140.611 355.842C140.642 357.054 140.199 358.232 139.377 359.125V359.125ZM169.802 331.216C168.98 329.164 166.924 327.112 166.102 325.06C164.228 327.666 162.016 330.012 159.523 332.037C159.523 332.447 164.868 331.216 169.802 331.216ZM130.332 362.409C130.797 361.274 131.347 360.177 131.977 359.125C130.743 359.536 129.51 359.946 128.688 359.125C128.804 360.387 129.391 361.559 130.332 362.409V362.409ZM158.701 332.858C157.468 333.679 156.645 334.499 155.412 335.32C158.948 335.937 162.565 335.937 166.102 335.32C164.046 334.499 160.757 333.679 158.701 332.858V332.858ZM241.341 344.35C241.003 342.955 240.293 341.679 239.285 340.656C237.705 341.168 236.188 341.856 234.762 342.708C237.001 343.053 239.203 343.603 241.341 344.35V344.35ZM90.8626 302.896C91.6849 302.896 92.9183 304.128 93.3295 304.538C93.2633 303.562 93.4034 302.583 93.7406 301.665C92.7147 301.899 91.7396 302.316 90.8626 302.896V302.896ZM94.1518 313.568C93.716 313.99 93.3794 314.503 93.1661 315.071C92.9528 315.639 92.8682 316.247 92.9183 316.851C93.9404 316.338 95.0638 316.057 96.2075 316.03C94.974 315.62 94.5629 314.799 94.1518 313.568ZM203.104 348.864C201.937 349.758 200.958 350.874 200.226 352.148C201.46 352.148 202.282 352.969 203.927 353.379C203.104 351.737 203.516 350.096 203.104 348.864V348.864ZM118.409 359.125C117.498 358.725 116.663 358.169 115.942 357.483C115.583 358.539 115.443 359.656 115.531 360.767C116.335 359.985 117.326 359.42 118.409 359.125V359.125ZM113.475 349.685C113.064 349.685 112.653 345.991 112.653 345.991C111.61 346.902 110.77 348.02 110.186 349.275C111.3 349.112 112.437 349.253 113.475 349.685V349.685ZM235.585 306.18C236.496 309.057 238.387 311.525 240.929 313.157C239.88 309.539 238.645 305.977 237.229 302.486C236.264 300.421 234.834 298.606 233.051 297.182C231.269 295.758 229.181 294.764 226.951 294.277C230.154 297.999 233.042 301.98 235.585 306.18V306.18ZM189.537 310.284C194.882 309.463 198.993 305.359 193.237 300.023C193.382 301.898 193.127 303.781 192.489 305.55C191.851 307.318 190.845 308.932 189.537 310.284V310.284ZM182.958 312.747C188.303 310.695 193.648 306.59 187.481 300.434C187.614 304.966 185.994 309.375 182.958 312.747V312.747ZM177.202 313.978C180.903 313.978 186.659 307.822 181.314 303.307C181.388 307.263 179.913 311.091 177.202 313.978ZM277.932 333.679C278.945 335.328 280.571 336.508 282.455 336.962C281.306 338.315 279.694 339.193 277.932 339.425C278.343 341.887 279.577 345.171 279.988 348.044C280.399 350.917 279.166 354.2 273.821 354.2C274.318 355.834 274.171 357.596 273.41 359.125C273.204 359.499 272.883 359.797 272.493 359.973C272.104 360.149 271.668 360.194 271.251 360.102C270.833 360.009 270.458 359.784 270.18 359.46C269.902 359.136 269.737 358.73 269.709 358.304C269.436 356.654 269.577 354.962 270.12 353.379C266.42 354.61 267.243 358.304 265.598 359.946C265.342 360.371 264.98 360.723 264.548 360.967C264.116 361.211 263.628 361.339 263.131 361.339C262.634 361.339 262.146 361.211 261.714 360.967C261.282 360.723 260.92 360.371 260.664 359.946C259.02 357.894 259.842 353.79 264.776 353.79C261.487 352.558 258.197 351.737 256.964 355.842C256.244 355.723 255.579 355.382 255.063 354.867C254.547 354.351 254.205 353.688 254.086 352.969C254.497 345.581 265.187 353.379 267.243 348.044C267.674 346.58 267.75 345.035 267.464 343.536C267.178 342.037 266.538 340.628 265.598 339.425C263.189 336.858 260.018 335.132 256.553 334.499C250.042 333.11 244.307 329.293 240.518 323.828C237.945 319.584 235.611 315.199 233.529 310.695C232.375 308.079 230.47 305.865 228.055 304.331C225.64 302.796 222.823 302.012 219.961 302.076C215.137 302.726 210.51 304.406 206.394 307.001L186.248 317.261C187.101 318.319 188.066 319.282 189.126 320.134C186.766 320.245 184.405 319.968 182.136 319.314C182.175 320.986 182.452 322.644 182.958 324.239C181.314 324.649 169.391 325.88 166.102 323.828C166.941 322.689 167.632 321.448 168.157 320.134C177.614 320.134 191.181 315.62 196.526 307.822C188.357 313.504 178.881 317.034 168.98 318.082C169.141 315.995 168.86 313.898 168.157 311.926C166.513 325.47 150.889 334.499 141.433 343.118C145.545 343.118 149.656 339.425 153.356 336.552C154.603 338.292 155.978 339.938 157.468 341.477C155.644 341.812 153.761 341.523 152.123 340.656C148.011 343.118 143.9 345.581 139.377 348.044C141.433 353.379 137.733 356.252 133.621 351.737C132.799 353.79 131.566 357.894 128.277 357.483C124.165 356.663 127.865 350.917 129.099 349.275C127.473 349.582 126.007 350.448 124.956 351.723C123.904 352.998 123.333 354.601 123.343 356.252C117.587 359.125 114.709 354.61 116.765 351.327C117.587 349.685 120.054 349.685 122.932 348.454C120.054 348.044 117.176 347.223 114.709 349.685C112.653 344.76 117.587 344.76 121.698 345.581C127.454 346.402 130.332 343.529 133.621 339.425L140.2 330.806C143.078 328.961 145.499 326.488 147.28 323.573C149.06 320.658 150.154 317.377 150.478 313.978C153.117 314.931 155.98 315.074 158.701 314.388C157.059 310.936 156.625 307.034 157.468 303.307C157.92 304.482 158.638 305.537 159.565 306.391C160.492 307.245 161.603 307.875 162.812 308.232C164.457 302.076 169.802 299.613 172.68 294.277L174.324 298.792C180.471 295.26 185.25 289.767 187.892 283.196C188.707 284.293 189.758 285.195 190.967 285.834C192.177 286.473 193.514 286.834 194.882 286.89V283.196C197.367 284.657 200.223 285.369 203.104 285.248L200.638 281.554C208.14 280.599 215.689 280.051 223.25 279.912C233.841 279.347 244.413 281.317 254.086 285.658C259.02 288.121 272.176 292.225 274.643 283.606C275.877 278.681 272.176 276.218 268.476 273.756C263.549 271.403 258.746 268.8 254.086 265.958C254.497 265.137 254.908 264.727 254.908 263.906C261.898 267.189 270.532 270.062 275.876 275.808C277.321 277.559 278.076 279.775 278.001 282.042C277.925 284.309 277.023 286.47 275.465 288.121C270.943 292.636 263.131 292.225 257.375 291.404C260.629 293.199 263.115 296.118 264.365 299.613C262.561 299.51 260.771 299.236 259.02 298.792C258.169 296.874 257.063 295.079 255.731 293.457L256.142 295.509C256.62 298.772 256.894 302.062 256.964 305.359C256.964 309.874 257.375 314.388 257.786 318.903C258.142 321.446 259.167 323.848 260.756 325.867C262.345 327.886 264.441 329.448 266.831 330.395C268.419 330.691 269.947 331.246 271.354 332.037C272.587 332.858 272.587 333.679 272.587 334.91C271.773 337.113 271.652 339.511 272.239 341.785C272.827 344.058 274.096 346.099 275.876 347.633C274.254 343.741 273.825 339.456 274.643 335.32C274.963 334.12 274.85 332.846 274.324 331.721C273.798 330.595 272.892 329.69 271.765 329.164C270.121 328.753 268.476 327.933 266.831 327.522C261.075 325.06 260.253 320.134 259.431 314.799C259.02 311.926 259.431 308.642 259.02 305.769C259.088 303.845 258.95 301.919 258.609 300.023C260.337 301.997 262.266 303.785 264.365 305.359H259.842C263.131 307.822 264.776 309.874 267.243 311.926C265.625 311.75 264.073 311.187 262.72 310.284C262.304 312.646 262.381 315.068 262.947 317.399C263.513 319.73 264.556 321.919 266.009 323.828C268.476 326.701 271.354 326.701 275.054 327.112C278.754 327.522 276.288 332.037 282.044 332.037C281.519 332.592 280.879 333.027 280.169 333.31C279.459 333.594 278.696 333.72 277.932 333.679V333.679ZM270.12 362.409C270.836 363.329 271.665 364.157 272.587 364.871C272.665 363.737 272.944 362.625 273.41 361.588C272.999 362.409 271.765 362.819 270.12 362.409ZM279.166 358.304C279.82 357.341 280.111 356.178 279.988 355.021C279.308 355.669 278.448 356.098 277.521 356.252L279.166 358.304ZM101.552 294.688C101.141 293.867 99.0855 293.457 99.0855 293.457C99.4142 294.398 99.6887 295.357 99.9077 296.33C99.4966 295.509 100.73 295.098 101.552 294.688V294.688ZM259.02 361.998C258.896 363.285 259.184 364.578 259.842 365.692C260.664 364.461 261.075 364.461 262.309 364.05C261.608 364.136 260.899 363.979 260.301 363.605C259.702 363.232 259.25 362.664 259.02 361.998ZM217.083 363.229C217.333 364.775 218.05 366.207 219.139 367.334C219.961 366.102 220.372 364.871 221.195 363.64C219.819 363.997 218.361 363.851 217.083 363.229V363.229ZM227.773 358.715C228.55 359.749 229.237 360.848 229.829 361.998C231.062 360.356 230.651 360.356 231.473 358.715C230.274 359.128 228.972 359.128 227.773 358.715V358.715ZM210.094 361.998C208.038 361.588 207.216 361.177 206.805 359.946C206.484 361.289 206.345 362.67 206.394 364.05C208.038 363.229 208.038 362.409 210.094 361.998ZM252.441 355.021C251.208 355.842 251.208 357.073 250.797 357.894C251.619 357.483 252.853 357.894 253.675 357.894C253.093 357.018 252.675 356.045 252.441 355.021V355.021ZM234.762 322.187C225.717 325.88 229.417 334.089 236.818 335.731C232.295 331.216 230.651 329.164 234.762 322.187ZM237.64 348.044C236.041 347.593 234.362 347.507 232.725 347.791C231.089 348.076 229.537 348.723 228.184 349.685C233.94 354.2 230.651 359.536 224.073 355.842C223.25 360.767 219.961 362.409 218.317 361.588C214.205 358.715 217.905 356.252 219.55 354.61C218.285 354.622 217.054 355.023 216.024 355.757C214.994 356.491 214.216 357.524 213.794 358.715C209.683 361.588 206.394 357.483 207.627 355.021C208.449 353.79 210.094 352.969 213.383 353.379C209.683 350.506 208.449 350.917 205.982 352.969C205.385 352.369 205.049 351.557 205.049 350.711C205.049 349.865 205.385 349.054 205.982 348.454C206.751 347.702 207.784 347.281 208.86 347.281C209.937 347.281 210.97 347.702 211.738 348.454C215.85 350.506 218.317 350.506 220.783 346.812C222.194 344.943 223.304 342.866 224.073 340.656C225.306 336.962 223.25 335.32 219.961 333.679C217.846 332.762 215.948 331.411 214.389 329.714C212.831 328.017 211.648 326.011 210.916 323.828C211.095 321.706 211.741 319.65 212.807 317.806C213.873 315.961 215.333 314.374 217.083 313.157C219.078 311.254 220.745 309.035 222.017 306.59C229.417 307.411 233.118 316.851 236.407 324.649C233.118 330.395 235.173 332.037 239.285 335.32C241.341 336.962 241.341 337.783 238.874 339.014C235.355 340.196 232.192 342.245 229.676 344.971C227.161 347.697 225.375 351.013 224.484 354.61C227.189 350.683 230.365 347.099 233.94 343.939L235.173 345.171C236.31 345.807 237.184 346.825 237.64 348.044V348.044ZM112.653 318.493C113.851 320.271 115.228 321.921 116.765 323.418C116.288 320.844 116.013 318.236 115.942 315.62C115.089 315.468 114.279 315.132 113.569 314.636C112.859 314.14 112.266 313.495 111.831 312.747C117.176 313.978 125.399 315.62 131.977 312.747C132.388 309.053 131.566 305.359 131.977 301.255C125.074 304.737 117.503 306.696 109.775 307.001C108.542 306.59 107.719 306.59 106.897 305.359C106.108 303.664 105.555 301.868 105.253 300.023C104.879 298.722 104.325 297.479 103.608 296.33C102.786 295.919 99.4966 297.15 100.319 297.971C102.094 299.872 103.117 302.351 103.197 304.949C102.09 303.297 100.516 302.011 98.6743 301.255C94.5629 299.613 94.5629 304.538 95.3852 307.001C97.5526 306.315 99.8985 306.461 101.963 307.411C96.2075 308.232 93.7406 314.388 98.6743 314.799C100.722 314.552 102.689 313.851 104.43 312.747C105.253 319.724 106.486 320.955 112.653 318.493V318.493ZM197.348 261.033C196.937 265.547 196.115 272.525 201.46 274.166C199.914 270.684 199.21 266.888 199.404 263.085C198.582 262.674 198.171 261.443 197.348 261.033V261.033ZM138.555 289.352C137.624 291.026 136.932 292.822 136.499 294.688C138.018 294.912 139.568 294.771 141.022 294.277C140.099 296.77 139.68 299.42 139.789 302.076C146.367 302.896 150.478 296.33 152.123 290.584C149.793 294.141 146.519 296.983 142.667 298.792C143.67 295.172 145.193 291.716 147.189 288.531C145.126 289.868 142.92 290.969 140.611 291.815C142.847 287.543 146.093 283.88 150.067 281.144C143.489 281.965 142.255 283.606 138.555 289.352V289.352ZM154.59 295.919C152.022 297.23 149.817 299.151 148.168 301.513C146.519 303.875 145.477 306.605 145.133 309.463C143.708 307.454 142.599 305.24 141.844 302.896C140.611 309.053 141.433 311.515 146.778 313.568C147.302 306.971 150.056 300.748 154.59 295.919V295.919ZM168.568 270.062C165.055 271.685 162.093 274.298 160.048 277.58C158.003 280.861 156.963 284.668 157.056 288.531C161.519 286.031 165.661 282.999 169.391 279.502L168.157 284.017C171.404 283.355 174.398 281.79 176.791 279.502C177.408 282.894 177.408 286.37 176.791 289.763C181.314 283.196 180.08 281.144 178.436 273.345C176.38 275.398 175.147 278.271 171.858 279.502L174.324 268.831C170.13 274.324 165.142 279.165 159.523 283.196C161.168 278.271 166.102 273.756 168.568 270.062ZM171.858 255.697C169.635 257.276 167.759 259.292 166.345 261.621C164.931 263.951 164.009 266.543 163.635 269.241C167.798 267.89 171.466 265.335 174.174 261.901C176.882 258.467 178.508 254.308 178.847 249.951C176.756 255.224 173.188 259.784 168.568 263.085C169.391 260.622 171.035 258.16 171.858 255.697ZM177.614 234.355C178.336 236.866 178.291 239.535 177.485 242.021C176.68 244.507 175.15 246.696 173.091 248.309C176.791 247.488 179.258 246.257 180.08 242.563C180.379 241.098 180.31 239.582 179.879 238.15C179.449 236.718 178.671 235.414 177.614 234.355ZM189.126 224.094C187.238 224.565 185.513 225.539 184.137 226.912C182.761 228.286 181.785 230.007 181.314 231.892C183.03 230.073 185.139 228.67 187.481 227.788C188.038 230.487 188.177 233.255 187.892 235.996C189.186 234.323 189.987 232.323 190.204 230.22C190.422 228.118 190.049 225.996 189.126 224.094V224.094ZM185.836 241.332C186.577 246.177 185.556 251.127 182.958 255.287C189.948 253.235 189.948 246.257 185.836 241.332ZM191.181 252.824C186.683 256.915 183.409 262.172 181.725 268.01C181.244 264.593 181.383 261.117 182.136 257.749C177.614 264.316 178.436 268.01 180.903 274.577C184.603 267.6 187.481 259.801 191.181 252.824V252.824ZM160.346 249.13C164.457 251.593 171.446 248.72 166.102 241.742C167.335 247.488 165.279 248.72 160.346 249.13ZM164.868 231.071C164.868 232.303 165.279 233.534 166.102 233.534C166.924 233.534 167.335 232.713 167.335 231.071C167.335 229.43 166.924 228.609 166.102 228.609C165.674 228.85 165.328 229.213 165.108 229.652C164.888 230.091 164.805 230.585 164.868 231.071V231.071ZM137.733 296.33C135.266 296.74 132.388 297.561 130.332 295.919C133.093 293.62 135.216 290.653 136.499 287.3C137.801 283.504 140.068 280.11 143.078 277.45C145.545 276.219 148.011 275.398 150.478 274.166C149.656 275.808 147.189 277.039 145.956 278.271C155.823 281.965 159.523 278.681 160.757 270.473C159.886 272.131 158.662 273.578 157.17 274.713C155.678 275.847 153.955 276.641 152.123 277.039C153.971 274.721 154.854 271.782 154.59 268.831C150.889 271.293 144.311 277.039 139.789 274.577C140.611 274.577 142.667 272.935 143.489 272.525C145.834 270.506 148.467 268.846 151.3 267.599C154.777 266.591 158.371 266.039 161.99 265.958C158.704 265.296 155.522 264.191 152.534 262.674C156.918 261.668 160.831 259.209 163.635 255.697C171.446 254.876 173.913 250.772 173.913 242.974C172.68 246.668 172.269 249.13 169.391 251.182C167.138 252.48 164.591 253.186 161.99 253.235C157.879 254.055 153.356 254.055 155.001 248.309V247.899C157.174 248.253 159.378 248.391 161.579 248.309C164.868 247.899 168.157 247.078 167.335 242.974C167.064 242.109 166.513 241.358 165.769 240.838C165.026 240.319 164.131 240.059 163.224 240.101C160.933 240.71 158.595 241.122 156.234 241.332C155.261 240.764 154.496 239.9 154.051 238.865C153.607 237.831 153.508 236.681 153.767 235.586C154.59 233.534 157.056 232.713 158.701 231.892C155.001 230.661 153.767 233.534 152.123 233.534C151.9 233.313 151.755 233.024 151.712 232.713C153.293 231.023 155.271 229.754 157.468 229.019C159.557 228.179 161.793 227.761 164.046 227.788C165.04 227.654 166.009 227.377 166.924 226.967C167.214 227.894 167.749 228.726 168.473 229.376C169.196 230.026 170.081 230.47 171.035 230.661C169.043 232.328 167.728 234.662 167.335 237.228C169.659 234.339 172.436 231.844 175.558 229.84C175.969 233.123 171.858 234.765 169.802 235.586C176.38 238.459 177.614 233.534 176.38 229.43C173.213 229.04 170.146 228.066 167.335 226.557C168.618 225.711 169.999 225.022 171.446 224.504C174.878 223.752 178.457 224.038 181.725 225.325C181.386 226.526 181.247 227.774 181.314 229.019C182.469 227.337 183.997 225.943 185.78 224.946C187.563 223.95 189.552 223.377 191.592 223.273C192.686 227.327 192.542 231.614 191.181 235.586C192.826 234.355 194.059 233.534 194.47 231.482C196.693 233.341 198.393 235.746 199.404 238.459C200.537 240.687 202.434 242.435 204.749 243.384C200.638 246.668 195.704 239.69 194.059 236.817C194.47 242.153 195.704 245.026 200.638 246.668C202.693 251.593 202.693 257.749 207.216 262.674C198.993 261.853 198.171 252.824 193.648 248.72C193.037 253.3 191.647 257.741 189.537 261.854C190.96 261.311 192.229 260.429 193.232 259.284C194.236 258.14 194.943 256.767 195.293 255.287C195.704 256.108 196.115 257.339 196.526 258.16C195.544 262.638 193.578 266.844 190.77 270.473C189.892 268.258 189.608 265.853 189.948 263.495C188.977 265.243 188.434 267.195 188.363 269.192C188.291 271.189 188.693 273.175 189.537 274.987C191.903 273.111 193.981 270.898 195.704 268.42L197.76 272.935C197.897 275.737 198.452 278.504 199.404 281.144C197.742 280.101 196.337 278.698 195.293 277.039C194.882 279.092 194.059 280.733 193.648 282.785C191.426 280.926 189.726 278.521 188.714 275.808C187.633 279.53 186.115 283.112 184.192 286.479C182.421 289.415 180.037 291.934 177.202 293.867C175.969 290.173 174.324 286.89 172.68 283.196V284.838C170.73 285.972 168.934 287.351 167.335 288.942C167.582 286.897 168.284 284.934 169.391 283.196C163.224 286.89 164.457 290.994 165.69 296.74C167.778 292.899 170.113 289.198 172.68 285.658C172.517 289.374 171.226 292.952 168.98 295.919C166.385 297.878 164.275 300.406 162.812 303.307C161.168 301.665 159.934 299.203 158.29 297.15C155.913 301.401 155.321 306.42 156.645 311.105C154.233 310.756 151.961 309.764 150.067 308.232C149.245 314.388 148.834 320.545 143.9 325.47V321.776C144.722 316.851 145.133 313.978 140.611 310.695C141.542 312.666 141.92 314.853 141.702 317.021C141.485 319.19 140.681 321.259 139.377 323.007C140.145 318.626 139.863 314.126 138.555 309.874L134.855 311.926C134.649 308.92 134.649 305.903 134.855 302.896C135.64 300.635 136.602 298.44 137.733 296.33V296.33ZM233.94 263.085C235.885 263.127 237.817 263.403 239.696 263.906C240.439 262.754 241.42 261.774 242.574 261.033L241.341 259.801C239.93 259.688 238.514 259.929 237.222 260.503C235.929 261.076 234.801 261.964 233.94 263.085V263.085ZM155.823 245.436C156.234 244.615 156.234 243.795 157.056 242.974C156.677 243.175 156.253 243.28 155.823 243.28C155.393 243.28 154.969 243.175 154.59 242.974L155.823 245.436V245.436ZM212.149 245.026C218.604 251.767 226.893 256.475 235.996 258.57C236.818 258.16 238.051 257.749 238.874 257.339C236.818 256.928 235.173 255.697 233.118 255.287C228.355 253.459 223.806 251.12 219.55 248.309C216.531 246.602 214.096 244.028 212.561 240.922C211.686 239.688 211.253 238.196 211.331 236.687C211.408 235.177 211.993 233.738 212.99 232.601C213.987 231.463 215.338 230.694 216.827 230.416C218.315 230.139 219.854 230.37 221.195 231.071C221.606 230.661 222.017 229.84 222.428 229.43C210.916 224.504 205.571 238.049 212.149 245.026V245.026ZM248.741 258.57C247.483 257.925 246.453 256.91 245.792 255.662C245.13 254.415 244.868 252.994 245.041 251.593C241.341 253.234 241.341 257.339 245.863 260.212L250.797 262.264C249.152 262.264 247.508 262.674 245.863 262.674C242.985 263.085 239.696 266.368 242.163 269.652C242.574 264.316 249.975 267.6 252.441 264.316C253.675 261.854 249.975 259.801 248.741 258.57V258.57ZM131.566 316.03C128.861 316.576 126.089 316.714 123.343 316.441C125.707 317.644 128.186 318.606 130.743 319.314C130.869 318.187 131.146 317.083 131.566 316.03V316.03ZM106.897 322.187C105.253 321.776 105.253 321.776 104.841 320.545C104.614 321.149 104.533 321.799 104.604 322.441C104.676 323.083 104.898 323.699 105.253 324.239C105.664 322.597 106.075 323.007 106.897 322.187ZM136.088 320.134C136.294 318.362 136.294 316.571 136.088 314.799L131.155 319.314C132.76 319.787 134.416 320.062 136.088 320.134V320.134ZM122.109 316.851L116.765 316.03C117.263 317.501 118.072 318.848 119.136 319.98C120.199 321.113 121.494 322.005 122.932 322.597V321.776C122.458 320.174 122.182 318.52 122.109 316.851V316.851ZM227.362 229.84C225.927 230.325 224.744 231.358 224.073 232.713C223.661 234.765 224.484 237.228 223.661 239.28C226.128 238.869 227.362 235.176 228.184 233.123C228.03 237.462 229.495 241.704 232.295 245.026C231.805 242.11 231.119 239.23 230.24 236.407C233.412 240.428 237.703 243.427 242.574 245.026V244.615C239.838 241.2 236.657 238.163 233.118 235.586C236.407 236.817 241.752 239.28 245.452 236.407C242.226 235.56 239.168 234.172 236.407 232.303C233.118 230.25 231.062 228.198 227.362 229.84ZM261.898 128.464V147.344H285.744V137.494H281.632V128.464H261.898ZM297.667 310.284C298.623 316.948 299.172 323.664 299.312 330.395H319.046L318.635 310.284H297.667V310.284ZM243.396 131.337H232.707V147.754H243.396V131.337ZM254.497 79.623V103.838H320.28V79.623H308.357V93.988H293.144V79.623H281.221V93.988H266.009V79.623H254.497V79.623ZM60.8493 197.006H97.4409V177.716H61.6716L60.8493 197.006ZM312.879 107.122H261.898V126.002H282.044V113.689H292.733V126.002H312.879V107.122V107.122ZM90.8626 265.958H58.7936L58.3824 285.248H84.2844C85.8557 278.623 88.0585 272.164 90.8626 265.958V265.958ZM57.149 330.395H76.8838V329.574C77.1401 323.106 77.8269 316.662 78.9395 310.284H57.5601L57.149 330.395ZM288.622 357.894H323.98V333.268H289.444L288.622 357.894ZM51.8041 357.894H87.5735L86.3401 333.268H51.393V357.894H51.8041ZM140.611 131.337H129.921V147.754H140.611V131.337ZM317.402 265.958H285.744C288.548 272.164 290.751 278.623 292.322 285.248H317.813L317.402 265.958ZM296.022 288.121H293.144C294.378 292.225 295.2 296.33 296.022 300.434V288.121ZM292.733 137.494H288.622V147.344H312.468V128.464H292.322V137.494H292.733ZM153.356 54.9973V79.2126H222.839V54.9973H210.505V69.7727H194.47V55.4077H181.725V69.7727H165.69V55.4077H153.356V54.9973ZM93.7406 137.494H89.6292V147.344H113.475V128.464H93.3295V137.494H93.7406ZM321.102 155.552L322.747 150.217H53.8599L55.5044 155.552H321.102ZM62.905 128.464V147.344H86.7512V137.494H82.6398V128.464H62.905ZM113.475 107.122H62.905V126.002H83.0509V113.689H93.7406V126.002H113.887V107.122H113.475ZM55.0933 79.623V104.249H120.876V80.0335H109.364V94.3985H94.1518V80.0335H82.2286V94.3985H67.0164V80.0335H55.0933V79.623ZM159.934 147.754H186.248V128.464H159.934V147.754ZM216.261 128.464H189.126V147.754H216.261V128.464V128.464ZM208.038 104.249H193.648V115.741H182.958V104.249H168.568V125.591H208.038V104.249ZM216.261 104.249H210.916V125.591H216.261V104.249V104.249ZM216.261 82.496H189.537V91.9359H193.648V101.376H216.261V82.496V82.496ZM159.934 125.591H165.279V104.249H159.934V125.591V125.591ZM182.547 91.9359H186.659V82.496H159.934V101.376H182.547V91.9359ZM83.4621 288.121H80.1729V302.486C81.0286 297.646 82.1263 292.851 83.4621 288.121V288.121ZM296.022 199.879H258.197V219.169H296.022V199.879ZM279.166 221.631V240.922H316.58L316.168 221.631H279.166ZM317.402 263.085L316.58 243.795H298.489V263.085H317.402V263.085ZM298.9 158.425V174.843H314.935L314.524 158.425H298.9ZM255.319 219.169V199.879L230.651 200.289C238.993 205.897 246.833 212.214 254.086 219.169H255.319V219.169ZM276.288 177.716H234.762V197.006H276.288V177.716V177.716ZM279.166 197.006H315.757L315.346 177.716H279.577V197.006H279.166ZM298.9 199.879V219.169H316.168L315.757 199.879H298.9ZM296.022 263.085V243.795H274.232C278.06 250.003 281.493 256.446 284.51 263.085H296.022ZM318.635 307.411L318.224 288.121H298.9V307.411H318.635ZM255.319 158.425H215.027V174.843H255.319V158.425V158.425ZM159.112 199.879C168.397 194.899 178.181 190.91 188.303 187.976C221.606 200.7 252.03 222.452 270.943 253.645C283.938 277.203 291.126 303.513 291.911 330.395H296.434C296.022 323.418 295.611 316.441 294.789 309.874C289.033 270.062 269.709 232.713 237.229 208.498C222.19 197.536 205.549 188.953 187.892 183.051C155.823 194.133 127.043 212.602 107.308 240.922L105.253 243.795C89.4177 269.984 80.6365 299.817 79.7618 330.395H84.6955C86.3401 299.203 94.1518 268.42 112.242 242.563C124.535 225.071 140.538 210.498 159.112 199.879V199.879ZM272.176 240.922H276.288V221.631H256.964C257.375 222.042 265.598 231.892 272.176 240.922ZM258.197 174.843H296.022V158.425H258.197V174.843ZM118.82 221.631H99.9077V240.922H103.608C108.321 234.218 113.4 227.779 118.82 221.631V221.631ZM58.7936 263.085H77.2949V243.795H59.2047L58.7936 263.085ZM117.998 199.879H80.1729V219.169H117.998V199.879ZM60.027 219.169H77.2949V199.879H60.4381L60.027 219.169V219.169ZM117.998 158.425H80.1729V174.843H117.998V158.425ZM77.2949 288.121H57.9713L57.5601 307.411H77.2949V288.121ZM97.0298 221.631H60.027L59.6158 240.922H97.4409V221.631H97.0298ZM161.168 158.425H120.876V174.843H161.168V158.425ZM145.545 199.879H120.876V219.169H121.698C128.873 211.84 136.875 205.367 145.545 199.879V199.879ZM164.046 174.843H212.149V158.425H164.046V174.843ZM101.963 243.795H80.1729V263.085H91.6849C94.974 256.518 98.2632 249.951 101.963 243.795V243.795ZM187.892 179.768C201.041 184.248 213.712 190.023 225.717 197.006H231.884V177.716H144.311V197.006H150.067C162.072 190.023 174.743 184.248 187.892 179.768V179.768ZM61.6716 158.425L61.2604 174.843H77.2949V158.425H61.6716ZM141.433 177.716H99.9077V197.006H141.433V177.716" fill="#FEC10D"/>
<path d="M516.394 30.3718C516.394 103.018 506.938 123.129 490.081 123.129C488.698 123.177 487.316 123.039 485.97 122.718V111.637H487.203C502.415 111.637 504.06 84.5484 504.06 18.8798H556.275V123.129H544.352V30.3718H516.394V30.3718ZM588.755 84.5484H601.501C609.723 84.5484 614.246 90.7049 614.246 98.503C614.246 106.301 610.957 112.868 601.501 112.868H588.755V84.5484ZM625.758 99.7343C625.924 96.5404 625.444 93.3459 624.346 90.3414C623.248 87.3369 621.555 84.5841 619.367 82.2474C617.18 79.9106 614.543 78.0378 611.615 76.7407C608.686 75.4437 605.526 74.749 602.323 74.6982H589.166V43.0951H578.066V123.129H602.734C608.888 123.053 614.762 120.551 619.076 116.168C623.389 111.786 625.791 105.878 625.758 99.7343V99.7343ZM663.172 85.7797C670.573 85.7797 674.684 91.9362 674.684 99.3239C674.684 108.764 670.161 112.868 662.761 112.868H649.193V85.7797H663.172ZM661.527 52.535C663.062 52.3686 664.614 52.555 666.066 53.0801C667.517 53.6051 668.829 54.4549 669.9 55.5641C670.972 56.6734 671.775 58.0128 672.247 59.4797C672.72 60.9466 672.851 62.5021 672.628 64.027C672.668 65.5469 672.397 67.059 671.833 68.4711C671.268 69.8832 670.421 71.1659 669.344 72.241C668.268 73.3161 666.983 74.1612 665.568 74.7247C664.153 75.2883 662.639 75.5585 661.116 75.519H649.193V52.1246H661.527V52.535ZM638.092 123.129H661.939C673.039 123.129 686.607 115.331 686.607 101.376C686.607 88.6527 679.206 82.4963 671.806 80.8546C675.625 79.5349 678.922 77.031 681.215 73.7083C683.508 70.3856 684.677 66.4181 684.551 62.3853C684.551 51.7141 675.095 43.5056 661.939 43.5056H638.503V123.129H638.092ZM713.331 42.6847H702.23V123.129H713.331V42.6847V42.6847ZM714.565 25.8571C714.57 24.9393 714.393 24.0296 714.044 23.1806C713.694 22.3316 713.18 21.5603 712.53 20.9113C711.88 20.2623 711.107 19.7486 710.256 19.3998C709.406 19.0511 708.495 18.8744 707.575 18.8798C706.677 18.884 705.79 19.0704 704.966 19.4279C704.143 19.7853 703.401 20.3062 702.786 20.9588C702.17 21.6115 701.695 22.3823 701.387 23.2244C701.08 24.0665 700.947 24.9622 700.997 25.8571C700.963 27.6474 701.633 29.3799 702.862 30.6838C704.091 31.9878 705.783 32.7597 707.575 32.8344C708.495 32.8399 709.406 32.6631 710.256 32.3144C711.107 31.9657 711.88 31.4519 712.53 30.8029C713.18 30.154 713.694 29.3826 714.044 28.5336C714.393 27.6847 714.57 26.7749 714.565 25.8571V25.8571ZM759.79 85.7797C767.191 85.7797 771.302 91.9362 771.302 99.3239C771.302 108.764 766.78 112.868 759.379 112.868H745.811V85.7797H759.79ZM758.557 52.535C760.092 52.3686 761.644 52.555 763.095 53.0801C764.547 53.6051 765.858 54.4549 766.93 55.5641C768.001 56.6734 768.804 58.0128 769.277 59.4797C769.75 60.9466 769.88 62.5021 769.658 64.027C769.697 65.5469 769.427 67.059 768.862 68.4711C768.298 69.8832 767.451 71.1659 766.374 72.241C765.297 73.3161 764.012 74.1612 762.598 74.7247C761.183 75.2883 759.668 75.5585 758.146 75.519H746.223V52.1246H758.557V52.535ZM735.122 123.129H758.968C770.069 123.129 783.637 115.331 783.637 101.376C783.637 88.6527 776.236 82.4963 768.835 80.8546C772.655 79.5349 775.952 77.031 778.245 73.7083C780.538 70.3856 781.707 66.4181 781.581 62.3853C781.581 51.7141 772.125 43.5056 758.968 43.5056H735.533V123.129H735.122ZM845.308 65.6687C843.252 52.1246 835.852 41.4534 820.639 41.4534C799.26 41.4534 794.737 61.9749 794.737 83.3172C794.737 103.839 799.26 124.77 820.639 124.77C835.852 124.77 843.252 114.099 845.308 100.555C845.308 100.555 839.141 98.9134 834.207 97.6822C832.562 107.122 829.273 114.51 820.639 114.51C807.894 114.51 805.838 98.503 805.838 82.4963C805.838 66.4896 807.894 51.3037 820.639 51.3037C829.273 51.3037 832.562 58.6914 834.207 68.1313L845.308 65.6687V65.6687ZM869.976 84.5484H882.722C890.945 84.5484 895.467 90.7049 895.467 98.503C895.467 106.301 892.178 112.868 882.722 112.868H869.976V84.5484ZM906.568 99.7343C906.734 96.5404 906.254 93.3459 905.156 90.3414C904.058 87.3369 902.365 84.5841 900.177 82.2474C897.99 79.9106 895.353 78.0378 892.425 76.7407C889.496 75.4437 886.336 74.749 883.133 74.6982H869.976V43.0951H858.876V123.129H883.544C886.601 123.124 889.626 122.512 892.444 121.33C895.262 120.147 897.817 118.417 899.959 116.24C902.101 114.063 903.789 111.483 904.923 108.65C906.058 105.816 906.617 102.785 906.568 99.7343V99.7343ZM919.313 123.129H930.414V86.1902H939.048C941.926 86.1902 944.804 88.2423 946.86 93.1674L953.027 110.816C953.598 114.337 955.396 117.544 958.104 119.872C960.811 122.199 964.255 123.498 967.828 123.539C969.347 123.589 970.866 123.451 972.351 123.129V113.278C971.719 113.61 971.006 113.753 970.295 113.689C968.379 113.436 966.592 112.586 965.189 111.259C963.786 109.933 962.839 108.197 962.483 106.301L957.55 90.7049C956.693 88.2548 955.224 86.0638 953.281 84.3399C951.339 82.6159 948.987 81.4162 946.449 80.8546C948.584 80.084 950.511 78.8309 952.08 77.1933C953.649 75.5557 954.818 73.5779 955.494 71.4147L960.016 59.9227C961.661 55.408 964.128 53.3558 967.828 53.3558H970.706V43.5056C969.36 43.1852 967.977 43.0472 966.595 43.0951C963.325 43.1017 960.13 44.0815 957.421 45.9092C954.711 47.7369 952.609 50.3295 951.382 53.3558L944.393 70.1834C943.778 72.0153 942.627 73.6207 941.087 74.7916C939.548 75.9625 937.692 76.6448 935.759 76.7503H930.003V43.5056H918.902V123.129H919.313ZM1019.63 90.7049C1019.63 103.428 1015.93 114.51 1004.01 114.51C995.375 114.51 992.497 108.353 992.497 100.145C992.497 82.9067 1004.01 82.4963 1019.63 82.4963V90.7049V90.7049ZM1001.54 124.36C1010.18 124.36 1015.11 122.308 1021.28 112.047C1024.15 120.256 1028.27 123.539 1034.02 123.539C1035.4 123.587 1036.79 123.449 1038.13 123.129V113.278C1037.44 113.375 1036.75 113.512 1036.08 113.689C1031.97 113.689 1031.14 110.816 1031.14 105.891V67.7209C1031.14 47.1994 1020.87 41.4534 1007.71 41.4534C995.375 41.4534 989.208 47.6098 984.685 59.1018L994.964 61.9749C997.019 56.2289 999.897 51.3037 1007.3 51.3037C1015.52 51.3037 1019.63 54.1767 1019.63 67.3104V73.4669H1011C990.852 73.4669 980.985 83.3172 980.985 100.966C980.985 114.51 987.974 124.36 1001.54 124.36V124.36ZM564.087 175.253H552.986L529.14 222.863L505.293 175.253H494.193V255.287H505.293V228.199C505.293 221.632 504.471 201.11 503.649 195.364L525.028 238.049H532.429L553.808 195.364C552.986 201.521 552.164 221.632 552.164 228.199V255.287H563.264V175.253H564.087ZM595.745 175.253H584.644V255.287H595.745V175.253ZM596.567 158.015C596.572 157.097 596.395 156.188 596.046 155.339C595.697 154.49 595.182 153.718 594.532 153.069C593.882 152.42 593.109 151.907 592.259 151.558C591.408 151.209 590.497 151.032 589.578 151.038C587.724 151.038 585.946 151.773 584.635 153.082C583.325 154.39 582.588 156.165 582.588 158.015C582.588 159.866 583.325 161.64 584.635 162.949C585.946 164.257 587.724 164.992 589.578 164.992C590.497 164.998 591.408 164.821 592.259 164.472C593.109 164.124 593.882 163.61 594.532 162.961C595.182 162.312 595.697 161.541 596.046 160.692C596.395 159.843 596.572 158.933 596.567 158.015V158.015ZM662.761 197.827C660.705 184.283 653.305 173.201 638.092 173.201C616.713 173.201 612.19 193.723 612.19 215.065C612.19 235.586 616.713 256.518 638.092 256.518C653.305 256.518 660.705 245.847 662.761 232.303C662.761 232.303 656.594 230.661 651.66 229.43C650.015 238.87 646.726 246.257 638.092 246.257C625.347 246.257 623.291 230.251 623.291 214.244C623.291 198.237 625.347 183.051 638.092 183.051C646.726 183.051 650.015 190.439 651.66 199.879L662.761 197.827V197.827ZM688.252 216.707H700.997C709.22 216.707 713.742 222.863 713.742 230.661C713.742 238.459 710.453 245.026 700.997 245.026H688.252V216.707ZM724.843 231.892C725.009 228.699 724.529 225.504 723.431 222.5C722.333 219.495 720.64 216.742 718.452 214.405C716.265 212.069 713.629 210.196 710.7 208.899C707.772 207.602 704.612 206.907 701.408 206.856H688.252V175.253H677.151V255.287H701.819C704.876 255.282 707.902 254.67 710.72 253.488C713.538 252.305 716.092 250.575 718.234 248.398C720.377 246.221 722.064 243.641 723.199 240.808C724.333 237.974 724.892 234.944 724.843 231.892V231.892ZM736.355 255.287H747.456V218.348H756.09C758.968 218.348 761.846 220.4 763.902 225.326L770.069 242.974C770.64 246.495 772.438 249.702 775.145 252.03C777.853 254.357 781.297 255.656 784.87 255.697C786.389 255.747 787.908 255.609 789.393 255.287V245.437C788.761 245.768 788.047 245.911 787.337 245.847C785.401 245.531 783.597 244.667 782.14 243.357C780.682 242.048 779.632 240.348 779.114 238.459L774.18 222.863C773.257 220.453 771.766 218.3 769.834 216.585C767.902 214.871 765.586 213.646 763.079 213.013C765.214 212.242 767.142 210.989 768.711 209.351C770.28 207.714 771.448 205.736 772.125 203.573L776.647 192.081C778.292 187.566 780.759 185.514 784.459 185.514H787.337V175.664C785.991 175.343 784.608 175.205 783.225 175.253C779.955 175.26 776.761 176.24 774.052 178.067C771.342 179.895 769.24 182.488 768.013 185.514L761.024 202.342C760.409 204.173 759.257 205.779 757.718 206.95C756.178 208.121 754.322 208.803 752.39 208.908H746.634V175.664H735.533V255.287H736.355ZM836.674 222.863C836.674 235.586 833.385 246.668 821.05 246.668C812.416 246.668 809.538 240.511 809.538 232.303C809.538 215.065 821.05 214.654 836.674 214.654V222.863V222.863ZM818.584 256.929C827.218 256.929 832.151 254.876 837.907 244.616C840.785 252.824 844.897 256.108 850.653 256.108C852.035 256.156 853.418 256.018 854.764 255.697V245.847C854.071 245.943 853.385 246.08 852.708 246.257C848.597 246.257 847.775 243.384 847.775 238.459V200.289C847.775 179.768 837.496 174.022 824.34 174.022C812.005 174.022 805.838 180.178 801.316 191.67L811.594 194.543C813.65 188.797 816.528 183.872 823.928 183.872C832.151 183.872 836.263 186.745 836.263 199.879V206.035H827.629C807.483 206.035 797.615 215.886 797.615 233.534C798.027 247.078 805.016 256.929 818.584 256.929V256.929ZM505.293 347.633C505.293 332.447 507.349 316.03 520.506 316.03C533.662 316.03 536.54 332.858 536.54 347.633C536.54 362.409 534.073 378.826 520.506 378.826C506.938 378.826 505.293 363.23 505.293 347.633V347.633ZM494.193 410.839H505.293V379.236C507.064 382.145 509.532 384.568 512.475 386.288C515.418 388.007 518.743 388.969 522.15 389.087C543.118 389.087 548.052 368.565 548.052 347.633C548.052 326.701 543.118 305.77 522.15 305.77C514.339 305.77 508.994 310.695 504.471 316.851L501.593 307.411H494.193V410.839ZM598.212 355.021C598.212 367.744 594.511 378.826 582.588 378.826C573.954 378.826 571.076 372.67 571.076 364.461C571.076 347.223 582.588 346.812 598.212 346.812V355.021V355.021ZM580.121 389.087C588.755 389.087 593.689 387.035 599.445 376.774C602.323 384.982 606.434 388.266 612.19 388.266C613.573 388.314 614.956 388.176 616.302 387.855V377.595C615.609 377.691 614.923 377.828 614.246 378.005C610.135 378.005 609.312 375.132 609.312 370.207V332.037C609.312 311.516 599.034 305.77 585.877 305.77C572.721 305.77 567.376 311.926 562.853 323.418L573.132 326.291C575.188 320.545 578.066 315.62 585.466 315.62C593.689 315.62 597.8 318.493 597.8 331.627V337.783H589.166C569.02 337.783 559.153 347.633 559.153 365.282C559.564 379.236 566.554 389.087 580.121 389.087ZM639.737 377.595C647.137 365.282 649.193 350.917 650.427 317.672H670.573V377.595H639.737ZM639.737 307.411C639.737 349.685 636.859 369.386 627.814 377.595L623.291 378.415V405.504H631.925L633.57 387.445H678.795L680.44 405.504H689.074V377.595H681.673V307.411H639.737ZM737.589 355.021C737.589 367.744 734.3 378.826 721.965 378.826C713.331 378.826 710.453 372.67 710.453 364.461C710.453 347.223 721.965 346.812 737.589 346.812V355.021V355.021ZM719.087 389.087C727.721 389.087 732.655 387.035 738.822 376.774C741.7 384.982 745.812 388.266 751.567 388.266C752.95 388.314 754.333 388.176 755.679 387.855V377.595C754.986 377.691 754.3 377.828 753.623 378.005C749.512 378.005 748.69 375.132 748.69 370.207V332.037C748.69 311.516 738.411 305.77 725.254 305.77C712.92 305.77 706.753 311.926 702.23 323.418L712.509 326.291C714.565 320.545 717.443 315.62 724.843 315.62C733.066 315.62 737.178 318.493 737.178 331.627V337.783H728.544C708.398 337.783 698.53 347.633 698.53 365.282C698.941 379.236 705.931 389.087 719.087 389.087V389.087ZM1353.93 484.06H1347.6V459.68H1352.66V476.918L1360.35 459.68H1366.68V483.937H1361.58V466.699L1353.93 484.06ZM1514.28 459.804C1511.69 459.623 1509.11 460.317 1506.96 461.774C1506.12 462.47 1505.46 463.353 1505.04 464.351C1504.61 465.35 1504.42 466.436 1504.49 467.52C1504.4 468.96 1504.78 470.392 1505.57 471.599C1506.36 472.806 1507.53 473.722 1508.89 474.21L1503.63 484.06H1509.34L1513.45 475.113H1516.83V484.06H1522.01V459.68L1514.28 459.804ZM1513.87 471.46C1512.82 471.511 1511.79 471.158 1510.99 470.475C1510.62 470.108 1510.33 469.665 1510.14 469.176C1509.96 468.687 1509.88 468.164 1509.92 467.643C1509.92 464.907 1511.48 463.538 1514.61 463.538H1516.95V471.501L1513.87 471.46ZM1485.09 459.804L1483.56 472.404C1483.32 474.62 1483.07 476.234 1482.82 477.247C1482.74 477.981 1482.42 478.667 1481.89 479.189C1481.37 479.712 1480.68 480.04 1479.95 480.12V484.635C1481.59 484.653 1483.2 484.121 1484.51 483.125C1485.82 482.129 1486.76 480.725 1487.18 479.135C1487.79 476.986 1488.2 474.789 1488.42 472.568L1489.4 463.826H1495.04V484.101H1500.22V459.68L1485.09 459.804ZM1388.67 463.908V459.804H1370.54V463.908H1377V484.142H1382.18V463.785H1388.71L1388.67 463.908ZM1326.67 459.804V484.06H1331.85V475.851H1334.61C1337.09 475.979 1339.54 475.255 1341.56 473.799C1342.44 473.057 1343.14 472.115 1343.59 471.052C1344.04 469.989 1344.23 468.835 1344.15 467.684C1344.22 466.565 1344.02 465.445 1343.56 464.422C1343.1 463.399 1342.4 462.504 1341.52 461.815C1339.34 460.38 1336.76 459.689 1334.16 459.845L1326.67 459.804ZM1331.85 472.116V463.621H1334.16C1337.28 463.621 1338.84 464.989 1338.84 467.725C1338.91 468.339 1338.84 468.961 1338.63 469.544C1338.43 470.127 1338.09 470.655 1337.65 471.09C1336.66 471.837 1335.43 472.202 1334.2 472.116H1331.85ZM1322.85 459.804H1317.71L1312.41 469.49H1309.57V459.68H1304.14V483.937H1309.32V473.225H1312.08L1317.55 483.937H1323.26L1316.39 470.762L1322.85 459.804ZM1297.32 480.202V459.68H1283.59L1282.68 467.15C1282.27 470.242 1281.94 472.568 1281.69 474.128C1281.43 476.291 1280.51 478.323 1279.06 479.956H1277.75V488.164H1281.86V483.814H1295.1V488.41H1299.21V480.202H1297.32ZM1292.26 480.202H1284.04C1285.48 478.372 1286.4 476.189 1286.71 473.881C1287.14 471.641 1287.46 469.381 1287.66 467.109L1288.03 463.826H1292.14L1292.26 480.202ZM1274.05 459.68H1268.87V483.937H1274.05V459.68ZM1259.04 471.09C1260.24 470.818 1261.34 470.206 1262.21 469.325C1262.64 468.865 1262.97 468.323 1263.19 467.731C1263.41 467.138 1263.51 466.508 1263.48 465.878C1263.54 464.922 1263.32 463.97 1262.86 463.133C1262.39 462.297 1261.69 461.611 1260.85 461.158C1258.48 460.046 1255.86 459.538 1253.24 459.68H1246.62V483.937H1254.19C1256.82 484.077 1259.44 483.525 1261.79 482.336C1262.71 481.777 1263.46 480.974 1263.94 480.017C1264.43 479.06 1264.64 477.988 1264.55 476.918C1264.62 476.164 1264.53 475.403 1264.26 474.692C1264 473.981 1263.58 473.339 1263.03 472.814C1261.85 471.858 1260.42 471.247 1258.92 471.049L1259.04 471.09ZM1253.61 463.333C1254.79 463.249 1255.97 463.475 1257.03 463.99C1257.4 464.24 1257.69 464.587 1257.88 464.991C1258.07 465.396 1258.14 465.844 1258.09 466.288C1258.13 466.738 1258.05 467.189 1257.87 467.603C1257.69 468.017 1257.42 468.382 1257.07 468.669C1256.21 469.243 1255.18 469.518 1254.15 469.449H1251.64V463.333H1253.61ZM1251.64 480.038V472.937H1254.56C1257.55 472.937 1259.04 474.155 1259.04 476.59C1259.1 477.115 1259.02 477.648 1258.79 478.126C1258.57 478.605 1258.21 479.011 1257.77 479.299C1256.61 479.853 1255.34 480.107 1254.07 480.038H1251.64ZM1474.19 480.038V459.68H1460.46L1459.55 467.15C1459.14 470.242 1458.81 472.568 1458.57 474.128C1458.3 476.291 1457.38 478.323 1455.94 479.956H1454.62V488.164H1458.73V483.814H1471.85V488.41H1475.96V480.202L1474.19 480.038ZM1469.13 480.038H1460.91C1462.35 478.207 1463.27 476.025 1463.58 473.717C1464.01 471.477 1464.33 469.217 1464.53 466.945L1464.9 463.662H1469.01L1469.13 480.038ZM1631 459.68H1625.78L1621.26 473.348L1615.58 459.68H1610.24L1618.71 478.396C1618.08 478.934 1617.36 479.342 1616.58 479.596C1615.79 479.85 1614.96 479.944 1614.14 479.874V484.47C1615.8 484.424 1617.44 484.105 1618.99 483.526C1620.29 482.832 1621.44 481.881 1622.36 480.73C1623.28 479.58 1623.95 478.255 1624.34 476.836L1631 459.68ZM1587.71 459.68H1582.53V483.937H1587.71V459.68ZM1572.78 471.09C1573.99 470.818 1575.09 470.206 1575.95 469.325C1576.38 468.864 1576.71 468.321 1576.93 467.729C1577.15 467.138 1577.25 466.508 1577.22 465.878C1577.28 464.922 1577.07 463.97 1576.6 463.133C1576.13 462.297 1575.44 461.611 1574.59 461.158C1572.22 460.046 1569.6 459.538 1566.99 459.68H1560.37V483.937H1567.93C1570.56 484.077 1573.19 483.525 1575.54 482.336C1576.45 481.777 1577.2 480.974 1577.68 480.017C1578.17 479.06 1578.38 477.988 1578.29 476.918C1578.37 476.164 1578.27 475.403 1578 474.692C1577.74 473.981 1577.32 473.339 1576.77 472.814C1575.59 471.858 1574.17 471.247 1572.66 471.049L1572.78 471.09ZM1567.36 463.333C1568.53 463.249 1569.71 463.475 1570.77 463.99C1571.14 464.24 1571.43 464.587 1571.62 464.991C1571.81 465.396 1571.88 465.844 1571.84 466.288C1571.87 466.738 1571.79 467.189 1571.61 467.603C1571.43 468.017 1571.16 468.382 1570.81 468.669C1569.95 469.243 1568.92 469.518 1567.89 469.449H1565.38V463.333H1567.36ZM1565.38 480.038V472.937H1568.3C1571.29 472.937 1572.78 474.155 1572.78 476.59C1572.84 477.115 1572.76 477.648 1572.53 478.126C1572.31 478.605 1571.95 479.011 1571.51 479.299C1570.36 479.853 1569.08 480.107 1567.81 480.038H1565.38ZM1543.26 471.829C1543.16 470.458 1543.45 469.086 1544.11 467.878C1544.76 466.669 1545.75 465.676 1546.96 465.016C1548.29 464.474 1549.72 464.244 1551.14 464.343C1552.57 464.443 1553.95 464.87 1555.19 465.591V460.994C1553.25 460.038 1551.1 459.59 1548.94 459.69C1546.79 459.791 1544.69 460.437 1542.85 461.568C1541.28 462.78 1540.01 464.335 1539.14 466.114C1538.26 467.893 1537.81 469.848 1537.81 471.829C1537.81 473.811 1538.26 475.766 1539.14 477.544C1540.01 479.323 1541.28 480.878 1542.85 482.09C1544.69 483.221 1546.79 483.867 1548.94 483.968C1551.1 484.068 1553.25 483.62 1555.19 482.664V478.273C1553.95 478.994 1552.57 479.421 1551.14 479.52C1549.72 479.62 1548.29 479.39 1546.96 478.847C1545.75 478.142 1544.76 477.11 1544.1 475.869C1543.45 474.628 1543.16 473.228 1543.26 471.829V471.829ZM1608.59 463.621V459.516H1590.46V463.621H1596.92V483.855H1602.1V463.785H1608.63L1608.59 463.621ZM1406.23 466.617V483.855H1411.33V459.68H1405L1397.31 476.918V459.68H1392.21V483.937H1398.54L1406.23 466.617ZM1426.79 458.408C1427.55 458.424 1428.3 458.291 1429.01 458.014C1429.71 457.738 1430.36 457.325 1430.91 456.798C1431.45 456.272 1431.89 455.642 1432.19 454.947C1432.49 454.251 1432.65 453.502 1432.67 452.744H1429.58C1429.47 453.391 1429.11 453.97 1428.58 454.36C1428.06 454.75 1427.4 454.921 1426.74 454.837C1425.14 454.837 1424.07 454.058 1423.95 452.744H1420.91C1420.91 453.5 1421.07 454.248 1421.37 454.944C1421.66 455.639 1422.1 456.269 1422.64 456.796C1423.18 457.323 1423.82 457.737 1424.53 458.013C1425.23 458.29 1425.99 458.424 1426.74 458.408H1426.79ZM1431.23 466.617V483.855H1436.32V459.68H1429.95L1422.26 476.918V459.68H1417.21V483.937H1423.54L1431.23 466.617ZM1519.66 311.926H1533.56C1534.2 311.926 1534.82 312.181 1535.27 312.635C1535.73 313.089 1535.99 313.705 1535.99 314.348V428.898C1535.97 429.537 1535.72 430.147 1535.26 430.599C1534.81 431.051 1534.2 431.309 1533.56 431.32H1519.62C1518.98 431.32 1518.36 431.065 1517.91 430.611C1517.45 430.156 1517.2 429.54 1517.2 428.898V314.265C1517.2 313.623 1517.45 313.007 1517.91 312.553C1518.36 312.099 1518.98 311.844 1519.62 311.844L1519.66 311.926ZM1306.03 322.064V428.775C1306.03 429.417 1306.29 430.033 1306.74 430.487C1307.2 430.942 1307.82 431.197 1308.46 431.197H1322.4C1323.04 431.186 1323.65 430.928 1324.1 430.476C1324.55 430.024 1324.81 429.414 1324.82 428.775V314.265C1324.81 313.627 1324.55 313.017 1324.1 312.565C1323.65 312.113 1323.04 311.855 1322.4 311.844H1273.64C1270.43 311.844 1269.77 313.445 1269.52 315.62C1269.61 333.586 1268.6 351.54 1266.52 369.386C1263.6 390.934 1258.3 410.634 1245.23 413.384C1242.35 414 1241.73 415.149 1241.73 417.488V427.872C1242.06 430.335 1242.68 431.238 1244.94 431.32C1262.7 430.294 1272.65 414.903 1276.8 388.717C1279.72 366.547 1281.29 344.219 1281.49 321.858L1306.03 322.064ZM1369.1 370.453C1381.19 370.453 1396.69 377.8 1396.73 395.079C1396.77 412.358 1383.53 421.141 1369.1 421.018H1364.25V370.453H1369.1ZM1345.67 314.265V428.816C1345.68 429.455 1345.94 430.065 1346.39 430.517C1346.84 430.969 1347.45 431.227 1348.09 431.238H1369.1C1390.03 431.238 1416.75 424.917 1416.26 394.586C1415.81 368.032 1390.89 360.398 1369.1 360.316H1364.25V314.265C1364.24 313.627 1363.98 313.017 1363.53 312.565C1363.08 312.113 1362.47 311.855 1361.83 311.844H1347.89C1347.28 311.896 1346.72 312.173 1346.3 312.622C1345.89 313.071 1345.67 313.657 1345.67 314.265V314.265ZM1454.46 373.49C1469.46 373.49 1482.04 379.852 1482.08 396.31C1482.13 412.768 1469.75 420.936 1456.06 420.936H1447.84V373.49H1454.46ZM1453.72 321.858C1465.47 321.858 1476.86 328.138 1476.9 341.764C1476.9 356.458 1465.64 363.763 1453.47 363.517H1447.96V321.899L1453.72 321.858ZM1429.05 314.224V428.775C1429.06 429.414 1429.32 430.024 1429.77 430.476C1430.22 430.928 1430.83 431.186 1431.47 431.197H1456.35C1477.81 431.197 1502.77 421.757 1502.31 395.9C1502.02 388.924 1499.4 382.248 1494.86 376.936C1490.32 371.624 1484.13 367.984 1477.27 366.595C1482.21 364.748 1495.9 355.555 1496.15 341.149C1496.47 322.187 1481.1 311.557 1461.2 311.598H1431.6C1431.26 311.596 1430.92 311.666 1430.61 311.803C1430.3 311.939 1430.02 312.14 1429.79 312.392C1429.56 312.643 1429.39 312.94 1429.28 313.263C1429.17 313.586 1429.14 313.927 1429.17 314.265L1429.05 314.224ZM1582.9 373.49C1597.9 373.49 1610.48 379.852 1610.53 396.31C1610.57 412.768 1598.19 420.936 1584.5 420.936H1576.28V373.49H1582.9ZM1582.16 321.858C1593.92 321.858 1605.3 328.138 1605.35 341.764C1605.35 356.458 1594.08 363.763 1581.91 363.517H1576.4V321.899L1582.16 321.858ZM1557.49 314.224V428.775C1557.5 429.414 1557.76 430.024 1558.21 430.476C1558.66 430.928 1559.27 431.186 1559.91 431.197H1584.79C1606.25 431.197 1631.21 421.757 1630.75 395.9C1630.46 388.924 1627.84 382.248 1623.3 376.936C1618.76 371.624 1612.57 367.984 1605.71 366.595C1610.65 364.748 1624.34 355.555 1624.59 341.149C1624.92 322.187 1609.54 311.557 1589.64 311.598H1559.87C1559.55 311.628 1559.24 311.722 1558.96 311.873C1558.68 312.024 1558.43 312.23 1558.23 312.478C1558.02 312.726 1557.87 313.012 1557.78 313.318C1557.69 313.625 1557.66 313.947 1557.69 314.265L1557.49 314.224Z" fill="black"/>
<path fill-rule="evenodd" clip-rule="evenodd" d="M1612.79 147.057H1606.74C1603.66 147.057 1600.49 146.851 1597.45 147.057C1587.09 147.057 1578.33 147.057 1569.04 147.057C1575.95 142.173 1577.88 128.095 1583.64 123.785C1586.22 121.971 1589.32 121.048 1592.48 121.159C1597.41 121.528 1602.01 127.315 1604.28 131.625C1608.02 138.725 1609.13 143.322 1612.79 147.016V147.057ZM1601.44 159.328C1601.44 166.798 1596.63 173.981 1588.36 170.328C1581.79 167.414 1581.21 163.351 1583.14 158.877C1584.24 156.077 1586.11 153.644 1588.53 151.859C1583.51 151.859 1578.37 151.859 1573.32 151.448C1572.99 159.287 1572.95 167.414 1572.74 175.335H1604.89C1607.32 175.335 1609.33 175.787 1611.76 175.787C1611.76 174.72 1611.76 173.693 1611.76 172.626C1611.76 166.511 1612.17 160.314 1612.25 154.28V151.161C1606.46 151.571 1601.19 151.777 1595.48 151.859C1597.06 152.497 1598.45 153.544 1599.5 154.892C1600.54 156.241 1601.21 157.842 1601.44 159.534V159.328ZM1565.75 275.685C1565.75 277.532 1566.41 278.271 1567.07 278.558C1567.41 278.693 1567.77 278.762 1568.14 278.763C1572.25 278.763 1573.81 279.625 1573.81 276.054C1573.81 268.503 1573.81 255.533 1573.56 248.884C1573.56 243.343 1573.56 237.802 1573.56 232.467C1573.23 214.942 1572.37 197.334 1572.7 179.809H1583.18C1582.65 180.178 1582.16 179.809 1582.03 182.846C1581.7 191.055 1581.7 202.341 1581.79 211.043C1581.79 217.445 1581.79 223.889 1581.79 230.292C1581.79 244.205 1581.46 259.884 1581.42 273.797C1581.42 276.424 1581.09 282.539 1581.17 285.125C1581.1 285.419 1581.08 285.724 1581.13 286.023C1581.18 286.322 1581.29 286.609 1581.45 286.865C1581.61 287.122 1581.82 287.344 1582.07 287.517C1582.32 287.69 1582.6 287.812 1582.9 287.875C1583.97 287.875 1585.4 287.875 1586.72 287.875C1588.04 287.875 1588.32 287.875 1588.36 285.207C1588.36 284.468 1588.36 282.827 1588.36 281.103C1588.36 276.054 1588.36 265.753 1588.36 260.581C1588.36 257.955 1588.36 255.287 1588.36 252.66C1588.36 247.571 1588.36 242.481 1588.36 237.392C1588.36 231.359 1588.36 225.366 1588.08 219.374C1588.08 216.953 1588.08 214.572 1588.08 212.192C1588.08 207.267 1588.08 202.328 1588.08 197.375C1588.08 192.368 1588.41 185.062 1588.36 179.973C1591.94 179.973 1595.48 180.219 1598.44 180.342C1598.44 183.051 1598.44 186.212 1598.44 187.894C1598.44 201.397 1597.16 214.901 1597.04 228.445C1597.04 234.642 1597.04 240.758 1597.04 247.16C1597.04 255.615 1597.04 268.174 1597.33 276.301C1597.33 279.461 1597.9 279.215 1598.81 279.338C1599.71 279.461 1601.23 279.338 1602.34 279.338C1603.45 279.338 1604.77 279.707 1604.65 276.916C1604.65 271.786 1604.23 265.383 1604.32 260.499C1604.32 253.358 1604.32 246.257 1604.65 239.116C1604.65 233.288 1604.93 227.46 1605.02 221.632C1605.18 208.087 1605.18 194.543 1605.02 180.999V180.671H1606.29C1607.61 180.671 1609.79 180.671 1612.29 180.342C1612.29 186.376 1612.29 191.999 1612.29 197.95C1612.29 209.852 1612.29 221.714 1612.29 233.616C1612.29 239.075 1612.29 244.616 1612.29 250.033C1612.29 257.462 1612.29 268.708 1612.54 275.89C1612.54 278.681 1612.95 278.804 1613.49 279.256C1614.02 279.707 1616.77 278.968 1617.6 278.927C1618.42 278.886 1619.2 278.312 1619.08 276.465C1619.08 271.95 1619.08 266.163 1619.08 261.73C1619.08 255.451 1619.08 249.212 1619.32 242.933C1619.53 231.195 1619.73 219.456 1619.73 207.718C1619.73 191.875 1619.32 176.443 1619.73 160.478C1619.73 157.892 1619.73 154.075 1619.73 150.627C1621.44 150.633 1623.15 150.482 1624.83 150.176C1625.22 150.054 1625.57 149.823 1625.83 149.51C1626.09 149.197 1626.26 148.816 1626.31 148.411C1626.31 147.221 1626.6 146.892 1625.37 146.318C1621.63 145.128 1617.35 137.863 1615.75 133.636C1614.31 129.743 1611.89 126.29 1608.71 123.62C1605.53 120.949 1601.7 119.153 1597.62 118.409C1597.37 116.439 1598.15 110.652 1598.56 104.536C1599.13 103.854 1599.55 103.059 1599.79 102.203C1600.04 101.347 1600.09 100.449 1599.96 99.57C1600.01 98.0988 1599.59 96.6498 1598.75 95.4375C1597.91 94.2252 1596.71 93.3141 1595.31 92.839V92.839C1595.13 88.2642 1595.44 83.6831 1596.22 79.1717C1596.22 77.1606 1599.59 77.8583 1601.93 77.8583C1605.26 77.8583 1605.34 75.1085 1602.38 74.5749C1601.07 74.3287 1597.99 74.5749 1596.67 74.3287C1595.93 71.4146 1596.67 70.4706 1597.41 66.1201C1598.27 59.7174 1594.41 59.348 1593.3 65.053C1593.25 68.2265 1592.75 71.3773 1591.82 74.4107C1589.52 74.2136 1587.21 74.4362 1584.99 75.0674C1583.18 76.0525 1583.31 77.7763 1585.24 78.1457C1585.9 78.1457 1588.16 78.1457 1590.01 78.1457C1591.86 78.1457 1592.02 78.1456 1591.98 78.8844C1591.98 81.8805 1591.98 87.7907 1591.98 92.1823C1589.02 92.88 1582.24 100.145 1585.9 103.592C1588.69 106.219 1587.67 113.36 1587.75 117.875C1574.26 122.636 1570.6 136.509 1564.27 146.605C1564.03 146.933 1563.73 147.21 1563.39 147.421C1563.04 147.632 1562.66 147.773 1562.26 147.836C1560.61 148.247 1560.61 150.463 1563.2 150.627L1566.45 150.833V151.161C1566.2 159.37 1566.45 167.578 1566.45 175.581H1563.29C1562.67 175.581 1562.63 176.566 1562.63 176.977C1562.63 178.783 1563.28 179.275 1564.11 179.398C1564.93 179.522 1565.96 179.398 1566.33 179.398C1566.33 182.969 1566.04 186.499 1566 189.864C1566 194.215 1566 201.603 1566 205.953C1566 208.252 1566 210.509 1566 212.807C1566 217.199 1566 221.591 1566 225.982C1566 231.195 1566.25 236.325 1566.41 241.537C1566.41 243.59 1566.41 245.642 1566.41 247.735C1566.41 251.839 1566.41 256.272 1566.62 260.499C1566.82 264.727 1565.71 271.335 1565.79 275.89L1565.75 275.685Z" fill="#991C78"/>
<path fill-rule="evenodd" clip-rule="evenodd" d="M1455.44 112.293C1457.93 114.571 1459.63 117.582 1460.29 120.889C1460.95 124.196 1460.53 127.626 1459.1 130.68C1457.83 132.718 1456.12 134.444 1454.09 135.729C1452.02 136.511 1449.81 136.846 1447.61 136.711C1445.4 136.577 1443.25 135.976 1441.3 134.949C1438.38 133.143 1434.06 124.483 1435.54 120.953C1438.26 114.92 1447.22 105.891 1455.44 112.293ZM1476.25 113.319C1476.25 149.683 1476.86 186.047 1476.99 222.452C1476.99 239.937 1476.99 257.462 1476.99 274.946C1476.99 280.118 1476.99 282.375 1476.99 283.853C1476.99 287.341 1476 287.259 1475.14 287.464C1473.57 287.464 1471.68 287.464 1470 287.464C1469.34 287.464 1468.31 286.808 1468.56 283.36C1468.02 256.805 1468.56 230.004 1468.56 203.655C1459.23 204.394 1440.35 205.461 1428.68 205.009C1428.68 216.501 1429.09 227.542 1428.92 238.993C1428.92 249.048 1427.98 259.514 1427.98 269.364C1427.98 271.293 1427.98 275.151 1427.98 277.039C1427.98 278.927 1422.76 279.092 1422.55 279.092C1422.3 279.108 1422.04 279.073 1421.8 278.988C1421.56 278.904 1421.34 278.771 1421.15 278.598C1420.96 278.426 1420.81 278.217 1420.7 277.984C1420.6 277.751 1420.54 277.5 1420.54 277.245C1420.54 276.711 1420.54 275.89 1420.54 274.659C1420.54 268.256 1420.54 261.854 1420.54 255.451C1420.54 242.112 1421.07 228.814 1421.24 215.475C1421.24 214.859 1421.24 211.371 1421.24 205.296H1418.97C1418.28 205.296 1417.37 205.296 1417.37 204.968C1417.27 203.369 1417.27 201.765 1417.37 200.166C1417.37 199.715 1417.99 199.386 1418.97 199.427H1421.32C1421.32 166.059 1420.99 91.5256 1420.99 83.9737C1414.53 83.9737 1415.11 73.8771 1418.23 74.0002C1423.23 72.9346 1428.16 71.5639 1432.99 69.896C1429.38 68.8699 1420.66 71.0041 1417.21 69.896C1415.56 69.2803 1415.32 67.7617 1414.82 66.2842C1412.6 59.3479 1415.32 61.4411 1418.93 60.8255C1425.77 60.3437 1432.64 60.2204 1439.49 60.4561C1441.67 55.9824 1445.41 49.3745 1444.42 44.6956C1443.15 38.4571 1441.75 26.1032 1441.3 23.2302C1440.6 18.3461 1443.64 18.8386 1445.41 18.6744C1447.18 18.5103 1451.95 18.3461 1455.48 17.8536C1459.02 17.3611 1468.68 13.9955 1470.16 18.1409C1471.07 18.1409 1470.16 24.2973 1471.44 25.2823C1471.93 26.4315 1471.85 31.3567 1470.57 32.0134C1467.69 32.3672 1464.78 32.3672 1461.9 32.0134C1457.26 31.6812 1452.6 31.6812 1447.96 32.0134C1448.71 36.8407 1449.2 41.7042 1449.44 46.5836C1453.42 50.9583 1456.82 55.8279 1459.55 61.0717C1462.97 61.3698 1466.41 61.3698 1469.83 61.0717C1470.94 54.628 1477.6 54.7511 1477.44 61.4411C1480.65 61.8926 1482.78 62.1799 1483.52 63.9037C1483.25 68.5403 1482.71 73.158 1481.92 77.7351C1481.34 82.1678 1479.29 81.2238 1476.9 81.8394C1476.53 81.8394 1476.33 110.816 1476.33 113.319H1476.25ZM1428.35 199.509H1443.11C1443.11 199.509 1443.11 199.14 1443.11 198.935C1443.44 189.454 1442.37 175.376 1443.11 165.895C1443.11 165.649 1442.82 164.746 1444.71 164.746C1445.62 164.746 1448.82 164.746 1449.73 164.746C1450.63 164.746 1451.21 165.156 1451.21 165.977C1451.21 182.723 1451.54 190.972 1451.21 199.427H1468.68C1468.68 192.395 1468.68 185.363 1468.68 178.331C1468.68 165.69 1469.46 152.967 1469.42 140.326C1469.42 135.77 1469.83 81.8805 1469.42 81.8394C1455.69 80.9365 1443.03 82.5782 1427.65 83.0297C1426.66 112.457 1427.03 161.955 1428.43 199.304L1428.35 199.509Z" fill="#E87817"/>
<path fill-rule="evenodd" clip-rule="evenodd" d="M1288.72 203.737C1288.4 197.581 1294.15 195.077 1295.18 203.162C1295.18 217.24 1295.18 219.58 1295.18 239.855C1295.18 241.373 1295.63 252.168 1295.55 253.85C1295.47 255.533 1294.32 255 1294.32 255C1292.84 255 1291.11 255 1289.67 255C1288.23 255 1288.31 255.369 1288.23 253.563C1287.45 236.958 1287.62 220.323 1288.72 203.737V203.737ZM1300.57 174.268L1282.93 174.679C1282.93 168.522 1287.7 140.654 1289.51 141.311C1293.7 144.471 1299.21 167.045 1300.61 174.268H1300.57ZM1268.62 148.288C1268.66 144.034 1268.95 139.786 1269.48 135.565C1270.14 130.27 1270.39 129.08 1271.91 137.042C1273.02 142.788 1274.5 148.575 1274.5 148.616C1272.61 148.452 1270.1 148.452 1268.66 148.329L1268.62 148.288ZM1306.16 148.001C1307.84 147.897 1309.53 147.897 1311.21 148.001C1311.21 145.538 1310.93 143.897 1310.88 143.897C1310.06 133.636 1308.5 136.673 1307.43 140.859C1306.84 143.204 1306.42 145.592 1306.2 148.001H1306.16ZM1312.24 178.701C1312.49 212.11 1313.27 245.519 1313.52 278.969C1313.52 279.666 1314.3 279.913 1314.91 279.913C1315.53 279.913 1318.66 280.446 1319.27 279.666C1320.01 279.666 1319.64 278.066 1319.64 277.409C1319.64 244.575 1319.44 211.166 1319.15 178.29H1321.29C1322.68 178.29 1323.05 175.5 1322.89 174.802C1322.84 174.624 1322.75 174.461 1322.62 174.331C1322.49 174.201 1322.33 174.109 1322.15 174.063C1321.2 173.817 1320.09 174.063 1319.35 174.063C1318.86 159.821 1319.35 147.59 1316.93 136.837C1315.65 131.132 1314.83 126.987 1313.31 121.323C1311.79 115.659 1309.2 114.551 1307.68 116.069C1305.58 118.491 1303.81 135.072 1302.87 137.042C1301.68 142.211 1300.92 147.469 1300.61 152.762C1298.69 146.209 1296.3 139.803 1293.45 133.595C1294.07 130.147 1293.45 125.386 1293.99 121.898C1294.52 118.409 1294.73 113.114 1290.99 111.924C1291.27 105.603 1291.56 102.238 1291.4 101.294C1291.23 100.35 1293.99 101.294 1295.26 100.966C1297.23 101.704 1297.52 98.0516 1295.26 97.477C1294.06 97.3416 1292.86 97.136 1291.68 96.8614C1291.78 93.7793 1291.67 90.6943 1291.36 87.6267C1291.36 82.4143 1288.68 82.5784 1287.98 87.6267C1287.92 90.5627 1288.09 93.499 1288.48 96.4099C1286.42 96.4145 1284.38 96.6905 1282.39 97.2307C1280.38 98.0516 1280.99 100.063 1282.39 100.186C1283.79 100.309 1286.5 100.186 1288.03 100.186C1288.03 100.843 1287.82 105.727 1287.61 113.279C1286.31 115.313 1285.37 117.565 1284.86 119.927C1284.09 124.662 1283.89 129.469 1284.24 134.251C1282.52 141.188 1280.13 154.773 1279.64 157.482C1279.01 150.39 1277.87 143.353 1276.23 136.427C1274.29 127.726 1273.47 124.606 1272.77 122.554C1270.72 116.316 1267.84 120.995 1266.48 127.233C1264.91 134.188 1264.06 141.284 1263.93 148.411C1262.33 148.411 1261.3 148.411 1261.01 149.027C1260.73 149.643 1261.01 151.9 1261.84 152.023C1262.55 152.175 1263.28 152.244 1264.01 152.228C1262.82 183.257 1263.73 215.147 1263.6 245.929C1263.6 258.981 1263.6 272.032 1263.6 285.084C1263.6 286.931 1263.6 286.644 1264.96 286.849C1266.77 287.114 1268.6 287.224 1270.43 287.177C1271.17 287.177 1271.79 287.177 1271.7 285.289C1271.7 282.375 1271.7 275.48 1271.7 272.525C1271.7 254.056 1270.43 235.915 1270.59 217.445C1270.59 209.237 1270.59 201.028 1270.59 192.82C1270.59 188.428 1270.18 183.954 1270.18 178.988H1277.5C1277.05 198.484 1276.8 218.143 1276.64 237.638C1276.64 251.716 1277.38 272.032 1277.46 286.069C1277.46 287.341 1277.83 287.547 1279.1 287.629C1280.38 287.711 1282.27 287.629 1283.21 287.629C1283.35 287.653 1283.49 287.647 1283.63 287.61C1283.76 287.574 1283.89 287.508 1283.99 287.418C1284.1 287.328 1284.18 287.215 1284.24 287.088C1284.3 286.962 1284.33 286.824 1284.32 286.685C1284.32 283.689 1283.91 274.372 1283.91 272.484C1283.91 258.447 1282.19 244.411 1282.27 230.374C1282.27 223.93 1282.27 217.404 1282.27 210.961C1282.27 202.506 1282.27 187.32 1282.72 178.824H1300.2C1300.2 193.23 1300.2 207.185 1300.2 221.591C1300.2 234.396 1300.52 247.243 1300.65 260.048C1300.65 264.481 1301.1 267.148 1301.22 272.361C1301.22 273.017 1301.43 273.017 1302.13 273.017L1306.24 273.305C1306.9 273.305 1306.98 273.305 1307.02 272.484C1307.02 264.275 1306.24 254.753 1306.2 246.75C1306.2 240.594 1306.2 234.437 1306.2 228.24C1306.2 214.86 1306.2 201.48 1306.2 188.1C1306.2 185.883 1306.2 181.574 1306.2 178.701H1312.24ZM1312.24 174.104C1310.76 174.104 1307.68 174.104 1305.66 174.104C1305.66 172.339 1305.25 161.791 1305.66 151.9C1307.62 152.033 1309.59 152.019 1311.54 151.859C1311.99 159.37 1312.45 166.593 1312.28 174.145L1312.24 174.104ZM1277.38 174.514C1275.4 174.514 1272.28 174.514 1270.18 174.514C1269.69 168.522 1270.18 158.549 1269.77 152.433C1271.45 152.647 1273.15 152.647 1274.83 152.433C1276.08 159.743 1276.95 167.114 1277.42 174.514H1277.38Z" fill="#009140"/>
<path fill-rule="evenodd" clip-rule="evenodd" d="M1345.26 76.1757C1346.2 74.6943 1346.95 73.0932 1347.48 71.4148C1348.9 68.0009 1351.04 64.9291 1353.75 62.403C1356.46 59.8769 1359.67 57.9542 1363.18 56.7625C1363.18 52.0015 1363.51 45.5577 1363.72 42.3974C1364 37.8827 1361.66 36.9387 1363.35 33.6553C1364.42 32.206 1365.83 31.0373 1367.46 30.2487C1367.79 25.7633 1367.71 21.2571 1367.21 16.7867C1367.42 14.9808 1364.25 15.4323 1362.15 15.3091C1359.15 15.3091 1359.28 12.1488 1361.95 11.7794C1363.51 11.6905 1365.07 11.6905 1366.64 11.7794V11.7794C1366.64 11.6815 1366.67 11.5875 1366.74 11.5182C1366.81 11.449 1366.91 11.4101 1367.01 11.4101V11.4101C1367.47 9.09322 1367.47 6.70855 1367.01 4.39172C1366.55 -1.39533 1370.25 -1.51846 1371.12 3.65295C1370.96 6.40432 1371.17 9.16454 1371.73 11.8615C1373.75 11.8018 1375.76 12.1221 1377.65 12.8055C1379.26 13.7905 1379.01 15.8837 1377.24 16.0889C1376.63 16.0889 1375.15 15.8016 1373.5 16.0889C1371.86 16.3762 1371.69 16.0889 1371.69 16.6635C1371.69 19.3313 1371.32 25.6109 1371.12 30.1667C1372.22 30.4861 1373.24 31.0602 1374.08 31.8427C1374.92 32.6253 1375.57 33.5944 1375.97 34.6722C1376.37 35.7501 1376.51 36.9065 1376.38 38.0486C1376.25 39.1907 1375.86 40.2866 1375.23 41.2482C1373.54 43.2593 1373.99 42.2743 1373.99 45.3525C1373.99 46.789 1373.79 52.0425 1373.79 56.3931C1378.76 59.1429 1386.62 61.2772 1393.07 73.4259C1393.36 67.6388 1392.78 61.113 1393.32 54.9155C1393.89 47.8972 1398.17 49.3747 1398.99 54.9155C1400.12 63.0802 1400.78 71.302 1400.97 79.5413C1402.19 79.5159 1403.42 79.6963 1404.58 80.0748C1405.45 80.4852 1405.28 82.5784 1404.58 83.1941C1403.54 84.3269 1402.26 85.2227 1400.84 85.8208C1400.84 97.7233 1400.84 112.458 1400.84 124.196H1403.56C1404.99 124.196 1404.95 125.468 1404.79 126.453C1404.78 126.838 1404.62 127.203 1404.34 127.472C1404.06 127.74 1403.69 127.89 1403.31 127.89C1402.4 127.89 1401.79 127.89 1400.92 128.136C1400.92 165.075 1401.13 231.318 1401.17 234.109C1401.21 236.9 1401.17 240.553 1401.17 243.754C1401.17 245.437 1401.17 262.839 1401.17 264.481C1401.17 267.682 1401.17 273.058 1400.92 276.26C1400.92 277.655 1401.62 279.543 1399.86 279.543H1392.21C1391.22 279.543 1391.1 279.543 1391.06 278.517C1390.19 257.626 1391.06 245.478 1390.81 229.676C1390.81 228.568 1390.81 218.471 1390.81 204.312C1375.35 204.763 1358.99 204.681 1343.53 204.64C1343.53 231.81 1342.3 258.283 1341.02 285.207C1341.02 286.233 1340.73 286.562 1339.91 286.685C1338.47 286.874 1337.01 286.984 1335.55 287.013C1335.14 287.013 1334.03 287.013 1334.07 285.248C1334.77 263.208 1335.55 240.758 1335.51 218.636C1335.51 213.669 1335.88 209.565 1335.88 204.64H1332.88C1332.18 204.64 1330.95 204.968 1330.95 203.655V201.316C1330.95 199.674 1334.65 200.125 1336.05 200.248C1336.66 177.059 1336.95 153.542 1336.05 129.778H1334.2C1333.7 129.778 1332.06 129.778 1331.69 126.987C1331.69 126.576 1331.69 125.181 1332.43 125.181C1333.17 125.181 1334.9 125.181 1336.05 124.976C1336.05 107.574 1336.05 92.9623 1335.76 86.4775C1335.1 75.8474 1334.16 67.4746 1336.5 59.6355C1337.77 55.5312 1340.9 58.6504 1341.8 62.5085C1342.5 65.5046 1343.73 71.7842 1344.6 76.3399L1345.26 76.1757ZM1373.38 156.168C1373.38 146.195 1381.11 142.091 1381.85 155.101C1381.85 170.164 1381.19 183.257 1381.56 200.248L1391.06 200.002C1391.34 186.294 1392.08 169.63 1392.17 153.747C1392.17 145.292 1392.66 137.33 1392.78 128.752C1376.91 129.408 1360.43 128.752 1344.56 129.614C1344.84 153.213 1343.82 176.813 1343.69 200.413H1352.86C1352.86 196.308 1352.86 192.204 1352.86 188.346C1352.86 152.68 1352.86 176.813 1352.86 152.105C1353.48 145.456 1355.45 145.087 1357.34 145.333C1359.23 145.579 1361.08 147.385 1360.84 153.131C1360.84 163.72 1361.29 184.939 1361.25 195.611C1361.25 198.607 1361.25 199.715 1361.25 200.454H1372.27C1372.27 199.715 1372.27 198.443 1372.27 195.816C1372.64 190.316 1373.67 162.653 1373.91 155.963L1373.38 156.168ZM1361.78 227.87C1361.99 221.468 1359.77 218.595 1357.67 218.759C1355.58 218.923 1352.94 220.277 1352.41 226.967C1352.41 253.03 1351.51 226.68 1351.51 264.357C1351.51 267.189 1351.51 274.126 1351.51 276.917C1351.51 278.558 1352.08 278.763 1352.66 278.846C1353.23 278.928 1357.75 278.846 1359.65 278.846C1361.54 278.846 1361.25 278.558 1361.29 277.081C1361.29 276.301 1361.29 275.48 1361.29 272.976C1361.91 261.361 1362.52 238.911 1362.32 227.706L1361.78 227.87ZM1381.19 228.937C1381.48 222.206 1378.64 218.307 1375.97 219.005C1374.12 219.456 1371.86 221.837 1371.28 227.87C1371.28 240.676 1370.66 264.439 1370.75 276.383C1370.34 278.969 1372.39 278.64 1373.17 278.64C1373.95 278.64 1379.75 278.928 1380.53 278.928C1381.31 278.928 1381.6 278.928 1381.56 277.163C1381.56 276.383 1381.56 274.7 1381.56 272.238C1382.18 266.779 1382.01 235.463 1381.72 228.773L1381.19 228.937ZM1375.23 106.383C1375.23 102.279 1376.21 100.309 1378.44 100.309C1380.66 100.309 1382.14 103.223 1382.01 107.286C1381.77 114.551 1381.44 119.599 1381.4 124.483H1392.82C1393.11 110.077 1393.4 99.8575 1393.4 98.6262C1393.4 95.0555 1393.4 90.4176 1393.4 86.3133C1392.11 86.4075 1390.82 86.4075 1389.54 86.3133C1373.78 88.064 1357.87 87.7051 1342.21 85.2462C1342.62 91.5258 1344.15 106.712 1344.39 124.771H1354.18C1354.47 119.107 1355.62 112.458 1355.49 106.383C1355.49 101.704 1357.51 98.6672 1359.36 98.5031C1361.21 98.3389 1362.44 101.048 1362.52 105.07C1362.52 110.447 1362.15 119.025 1362.03 124.688H1374.86C1375.56 118.778 1375.72 111.965 1375.76 106.219L1375.23 106.383ZM1353.52 80.8136H1382.3C1381.74 75.858 1379.56 71.2254 1376.09 67.6388C1374.16 65.7261 1371.69 64.4611 1369 64.0197C1366.32 63.5784 1363.57 63.9826 1361.13 65.1762C1358.1 67.0118 1355.91 69.959 1355.04 73.3848C1355.08 74.6161 1354.3 79.0898 1354.05 80.6494L1353.52 80.8136Z" fill="#D9261C"/>
<path fill-rule="evenodd" clip-rule="evenodd" d="M1518.26 175.992C1518.72 168.933 1512.3 166.06 1510.91 175.335C1509.85 182.898 1509.7 190.557 1510.45 198.155C1510.45 199.51 1511.69 199.51 1512.34 199.469C1513.71 199.55 1515.09 199.55 1516.46 199.469C1516.95 199.469 1518.02 199.469 1518.02 198.155C1518.02 192.655 1518.02 181.328 1518.31 175.951L1518.26 175.992ZM1525.01 175.376C1524.64 169.138 1531.17 166.593 1532.37 174.761C1532.37 189.085 1532.37 171.395 1532.37 192.081C1532.37 193.64 1532.37 197.293 1532.37 198.812C1532.37 200.33 1530.97 200.043 1530.97 200.043C1529.32 200.213 1527.65 200.213 1525.99 200.043C1525.09 199.222 1525.38 199.181 1525.34 195.939C1525.3 192.696 1525.05 193.846 1525.05 190.85C1525.05 189.29 1525.05 188.674 1525.05 187.074C1524.88 180.137 1524.93 178.906 1524.93 175.417L1525.01 175.376ZM1540.88 129.408C1540.59 139.751 1540.59 156.743 1540.88 167.004C1540.88 175.212 1540.63 183.421 1540.88 191.629C1540.88 203.942 1540.88 216.583 1540.88 229.06C1531.42 229.06 1512.63 229.06 1503.3 229.348C1502.76 218.964 1502.39 209.401 1502.48 199.51C1502.48 190.234 1501.9 180.876 1501.94 171.6C1501.94 159.288 1501.94 140.613 1501.7 128.505C1503.67 128.505 1507.29 128.505 1509.92 128.505C1511.07 128.485 1512.17 128.03 1513 127.233C1517.11 122.267 1521.23 113.935 1528.34 127.52C1528.72 128.384 1529.37 129.101 1530.19 129.567C1531.01 130.033 1531.96 130.222 1532.9 130.106C1535.55 130.099 1538.19 129.879 1540.8 129.449L1540.88 129.408ZM1553.62 124.032C1551.34 123.016 1549.49 121.248 1548.36 119.024C1548.57 114.674 1548.94 108.641 1548.94 106.712C1549.43 100.555 1544.5 100.883 1543.55 105.275L1542.48 110.159C1534.51 94.3987 1532.7 81.4292 1533.31 62.2621C1534.57 60.1179 1535.11 57.6336 1534.88 55.1617C1534.09 48.2255 1528.63 48.759 1525.67 48.1844C1525.67 47.4046 1526.41 31.7673 1526.94 30.9464C1527.47 30.1256 1530.43 30.1666 1531.75 30.0024C1535.33 29.5099 1534.75 27.5809 1531.17 26.3907C1529.8 26.2262 1528.4 26.3378 1527.06 26.719C1526.61 26.3086 1526.78 24.79 1526.61 21.5065C1526.36 16.9918 1523.4 14.242 1522.5 21.0551C1521.92 24.9542 1521.92 25.5698 1522.5 26.719C1519.29 27.0884 1518.72 26.719 1516.58 27.0063C1512.92 27.2526 1514.44 30.2897 1517.69 30.7412C1519.23 30.9833 1520.8 30.9833 1522.34 30.7412C1522.91 31.48 1521.6 46.9121 1521.97 48.718C1517.52 50.3187 1516.58 57.5012 1516.41 62.5494C1515.84 82.8657 1510.45 94.4808 1500.22 112.704L1499.56 105.398C1499.56 99.2418 1494.5 99.6112 1494.5 104.126V120.543C1493.33 122.213 1491.82 123.613 1490.06 124.647C1489.36 125.058 1489.16 125.222 1489.11 125.838C1489.04 126.19 1489.04 126.553 1489.11 126.905C1489.18 127.257 1489.32 127.592 1489.53 127.89C1489.6 127.992 1489.69 128.078 1489.79 128.142C1489.9 128.205 1490.02 128.245 1490.14 128.259C1490.92 128.259 1493.23 128.259 1494.25 128.259C1494.25 135.031 1494.46 144.676 1494.25 151.53C1494.25 162.147 1494.16 172.777 1493.97 183.421C1493.97 196.842 1493.68 210.14 1493.6 223.561C1493.6 241.455 1493.6 259.391 1493.6 277.286C1493.6 280.2 1493.6 282.703 1493.6 283.73C1493.6 285.987 1494.54 286.397 1496.31 286.685C1497.98 286.889 1499.66 286.889 1501.33 286.685C1502.23 286.685 1503.26 286.685 1503.18 284.222C1503.18 280.651 1502.93 254.22 1502.93 250.567C1502.93 244.657 1502.68 238.829 1502.39 232.96C1510.62 232.96 1528.05 233.165 1539.77 233.247C1539.77 247.489 1539.77 261.731 1539.77 276.014C1539.77 278.64 1540.59 279.01 1541.17 279.174C1541.74 279.338 1545.03 279.379 1546.39 279.379C1546.92 279.379 1548.32 279.913 1548.4 277.081C1548.4 276.137 1548.4 274.659 1548.4 271.335C1548.4 265.753 1547.79 243.343 1547.62 233.329C1548.54 233.378 1549.46 233.378 1550.38 233.329C1551.44 233.329 1552.31 233.329 1552.31 232.96C1552.49 231.834 1552.57 230.694 1552.55 229.553C1552.55 228.732 1551.73 228.527 1550.79 228.568H1547.54C1547.54 216.255 1546.92 203.614 1546.72 191.178C1546.72 182.969 1546.72 174.761 1546.72 166.552C1546.72 155.019 1547.5 139.751 1547.54 128.218C1549.01 127.982 1550.46 127.667 1551.9 127.274C1554.12 127.233 1555.06 124.483 1553.54 124.073L1553.62 124.032ZM1524.84 70.9222C1526.36 92.9622 1532.16 110.446 1541.29 123.58C1540.01 123.79 1538.7 123.79 1537.42 123.58C1536.52 123.58 1536.56 123.17 1536.07 122.431C1532.28 111.924 1516.33 109.872 1510.33 123.129C1507.95 123.282 1505.56 123.282 1503.18 123.129C1509.59 114.92 1519.62 89.8019 1521.35 72.3176C1521.23 69.4446 1524.56 68.7059 1524.56 70.9222H1524.84Z" fill="#0082C9"/>
</g>
<defs>
<clipPath id="clip0">
<rect width="1631" height="488" fill="white"/>
</clipPath>
</defs>
</svg>
