<svg width="905" height="1137" viewBox="0 0 905 1137" fill="none" xmlns="http://www.w3.org/2000/svg">
<path d="M66.5103 1067.2H78.4333V1123.33H66.5103V1067.2ZM604.77 919.674C605.919 979.547 548.315 1001.42 498.899 1001.28H441.439C439.953 1001.28 438.528 1000.69 437.477 999.635C436.427 998.583 435.836 997.155 435.836 995.666V730.558C435.836 729.056 436.422 727.613 437.468 726.538C438.515 725.462 439.94 724.839 441.439 724.801H509.96C555.785 724.801 591.267 749.268 590.405 793.165C590.405 826.412 558.371 847.712 547.309 852.03C563.06 855.238 577.282 863.646 587.7 875.91C598.117 888.174 604.128 903.584 604.77 919.674V919.674ZM479.219 844.258H492.004C498.908 844.953 505.881 844.171 512.461 841.962C519.04 839.754 525.077 836.17 530.17 831.448C535.263 826.726 539.297 820.974 542.004 814.573C544.711 808.172 546.03 801.267 545.873 794.317C545.873 762.797 519.585 748.405 492.435 748.405H479.219V844.258ZM557.796 921.114C557.796 883.118 529.066 868.437 494.159 868.437H479.794V978.108H498.468C529.928 977.388 557.94 959.541 557.796 921.114ZM48.6976 347.72C48.6976 346.137 51.7143 346.713 55.4492 346.281C55.7416 329.811 57.7151 313.414 61.3389 297.347C64.3555 282.954 71.1071 272.16 75.704 286.553C77.2841 291.302 79.2952 298.498 83.7484 318.648C87.4755 334.66 90.0677 350.916 91.5055 367.294C92.7984 361.105 98.1135 329.586 102.136 313.466C101.307 302.414 101.789 291.302 103.572 280.364C104.788 274.929 106.979 269.76 110.036 265.108C110.036 247.693 110.898 236.323 110.898 234.74C107.882 234.74 101.561 235.46 97.9698 234.74C94.3786 234.02 93.0857 229.703 97.9698 227.832C102.654 226.57 107.485 225.94 112.335 225.961C111.502 219.23 111.166 212.447 111.329 205.667C112.91 193.722 118.799 193.29 119.086 205.667C119.804 212.792 120.091 219.953 119.948 227.112C122.65 227.704 125.384 228.136 128.136 228.407C133.308 229.703 132.733 238.194 128.136 236.467C125.12 236.467 120.092 236.467 119.23 236.467C118.368 236.467 119.23 246.542 118.225 261.078C126.844 263.813 125.982 275.47 125.12 284.106C124.258 292.741 125.12 303.248 123.971 311.164C130.479 325.545 135.999 340.356 140.49 355.492C141.185 343.278 142.915 331.144 145.662 319.223C147.817 314.618 151.983 276.046 156.723 270.721C161.463 265.396 166.348 270.721 169.652 282.811C172.956 294.9 175.11 305.407 177.983 318.648C182.42 347.207 184.295 376.107 183.586 405.002C185.31 405.002 187.895 405.002 190.05 405.002C190.47 405.099 190.854 405.312 191.159 405.618C191.464 405.923 191.677 406.308 191.774 406.729C191.774 408.312 191.774 414.789 188.183 414.789H183.155C183.873 490.781 184.591 567.924 184.304 644.06C184.304 645.499 185.166 649.241 183.442 649.241C181.718 649.241 173.817 649.241 173.386 649.241C172.956 649.241 170.083 649.241 170.083 647.082C170.083 569.795 167.784 492.508 167.21 415.221H152.844C152.844 421.697 152.844 431.772 152.844 436.809C152.844 467.753 152.844 498.697 152.844 529.64C152.844 544.033 152.844 558.425 152.844 572.817C152.844 591.24 155.143 612.972 154.856 632.258C154.856 633.841 154.856 634.273 152.988 634.273H143.938C142.358 634.273 141.927 634.273 141.927 632.834C141.927 620.456 140.634 614.268 140.634 604.049C140.634 574.401 139.772 544.752 139.629 515.104C139.629 481.714 139.629 449.475 139.629 416.228H98.2571C97.1079 435.802 97.3952 471.063 97.2516 490.493C97.2516 504.885 97.2516 520.573 97.2516 535.397C97.2516 567.924 100.986 600.451 100.986 632.834C100.986 637.583 101.992 658.74 101.848 665.648C101.848 666.944 100.843 667.951 99.2627 667.951H89.9254C87.0524 667.951 86.1905 667.951 86.1905 664.353C86.1905 631.826 84.0357 584.763 84.323 552.236C84.323 507.188 85.3286 461.708 86.3341 416.66H69.3833C69.3833 428.174 70.5325 438.392 70.3889 448.611C70.3889 467.609 70.3889 486.607 70.3889 506.181C70.3889 549.358 72.9746 590.808 72.9746 633.553C72.9746 640.462 72.9746 656.293 72.9746 663.058C72.9746 667.519 71.8254 667.232 70.1016 667.52C65.8935 667.83 61.6684 667.83 57.4603 667.52C54.1563 667.52 54.3 667.519 54.3 663.346C54.3 633.122 54.3 602.898 54.3 572.817C54.3 500.855 52.4325 427.742 55.3055 356.068C53.6351 356.261 51.9482 356.261 50.2778 356.068C48.554 354.341 47.6921 349.879 48.6976 347.72ZM152.557 345.417C156.385 345.204 160.221 345.204 164.049 345.417C164.049 339.804 164.049 336.062 163.331 335.775C161.463 312.027 157.729 319.079 155.286 328.722C153.961 334.211 153.049 339.792 152.557 345.417V345.417ZM151.408 405.722C156.005 405.722 163.187 405.722 166.491 405.722C166.491 388.307 166.491 371.612 164.911 354.053C160.465 354.412 155.998 354.412 151.552 354.053C150.546 377.513 151.408 402.987 151.408 406.297V405.722ZM98.9754 407.161L139.629 406.153C136.612 390.034 123.683 337.79 114.059 331.025C109.893 329.01 98.6881 393.488 98.9754 407.737V407.161ZM80.1571 356.068C76.2947 356.57 72.3838 356.57 68.5214 356.068C69.9579 370.46 68.5214 393.2 69.527 407.161C74.4111 407.161 81.5936 407.161 86.1905 407.161C85.0969 390.034 83.0829 372.978 80.1571 356.068V356.068ZM65.792 346.713C69.2397 346.713 74.9857 346.713 80.1571 347.432C80.1571 347.432 76.7095 333.904 74.1238 320.663C69.9579 302.24 69.527 304.975 67.9468 316.633C66.7022 326.613 66.0307 336.656 65.9357 346.713H65.792ZM790.079 1123.33H802.002V1067.2H790.079V1123.33ZM775.714 1097.71C776.916 1098.9 777.847 1100.35 778.442 1101.94C779.037 1103.53 779.282 1105.23 779.162 1106.92C779.379 1109.41 778.903 1111.91 777.787 1114.15C776.672 1116.38 774.96 1118.26 772.841 1119.58C767.424 1122.34 761.383 1123.63 755.316 1123.33H738.221V1067.2H753.448C759.487 1066.86 765.514 1068.04 770.974 1070.65C772.924 1071.7 774.53 1073.29 775.601 1075.23C776.671 1077.17 777.159 1079.38 777.007 1081.59C777.082 1083.03 776.867 1084.48 776.373 1085.84C775.879 1087.2 775.118 1088.45 774.134 1089.5C772.145 1091.55 769.595 1092.95 766.808 1093.53C770.085 1094.14 773.153 1095.57 775.714 1097.71V1097.71ZM749.713 1089.94H755.603C758.001 1090.11 760.385 1089.45 762.355 1088.07C763.155 1087.41 763.782 1086.57 764.183 1085.62C764.584 1084.66 764.745 1083.63 764.653 1082.6C764.744 1081.57 764.567 1080.54 764.139 1079.61C763.71 1078.67 763.046 1077.87 762.211 1077.27C759.741 1076.13 757.023 1075.63 754.31 1075.83H749.713V1089.94ZM766.808 1106.49C766.808 1100.87 763.36 1098 756.465 1098H749.713V1114.4H755.459C758.368 1114.53 761.269 1113.99 763.935 1112.82C764.983 1112.15 765.83 1111.21 766.386 1110.09C766.943 1108.98 767.188 1107.73 767.095 1106.49H766.808ZM127.131 473.51C124.833 454.944 111.617 460.701 112.766 474.949C110.192 513.276 109.809 551.718 111.617 590.088C111.617 594.262 112.91 593.255 114.921 593.399C116.932 593.543 122.247 593.399 125.694 593.399C125.694 593.399 129.142 594.118 128.567 590.808C127.993 587.498 127.706 562.023 127.706 558.425C127.275 511.506 127.418 506.181 127.131 473.51ZM656.628 409.464C656.628 417.523 656.628 420.402 656.628 437.241C656.628 440.983 656.628 442.422 656.628 446.02C656.628 452.929 656.628 450.914 656.628 457.822C656.628 464.731 656.628 465.162 658.208 467.033C661.977 467.494 665.787 467.494 669.556 467.033C669.556 467.033 673.579 467.033 672.86 464.155C672.142 461.276 672.86 452.209 672.86 448.611V422.561C672.86 422.561 672.86 419.97 672.86 408.168C670.849 388.595 655.766 394.927 656.628 409.464ZM53.2944 1097.71C54.5467 1098.87 55.5201 1100.31 56.1419 1101.9C56.7638 1103.5 57.018 1105.21 56.8857 1106.92C57.0111 1109.4 56.495 1111.87 55.3876 1114.08C54.2801 1116.3 52.6189 1118.2 50.5651 1119.58C45.1478 1122.34 39.1069 1123.63 33.0397 1123.33H15.227V1067.2H30.5976C36.6361 1066.86 42.6628 1068.04 48.123 1070.65C50.073 1071.7 51.6795 1073.29 52.7498 1075.23C53.82 1077.17 54.3084 1079.38 54.1563 1081.59C54.2124 1083.04 53.9741 1084.5 53.4556 1085.86C52.9372 1087.22 52.1494 1088.46 51.1397 1089.5C49.197 1091.61 46.6264 1093.02 43.8135 1093.53C47.2002 1094.06 50.3791 1095.5 53.0071 1097.71H53.2944ZM27.4373 1089.94H33.1833C35.5837 1090.13 37.9754 1089.47 39.9349 1088.07C40.7515 1087.42 41.3999 1086.58 41.8251 1085.63C42.2503 1084.68 42.4396 1083.64 42.377 1082.6C42.4679 1081.56 42.2754 1080.51 41.8199 1079.58C41.3645 1078.64 40.6633 1077.84 39.7913 1077.27C37.3214 1076.13 34.6032 1075.63 31.8905 1075.83H27.15L27.4373 1089.94ZM44.5317 1106.49C44.5317 1100.87 41.0841 1098 34.1889 1098H27.15V1114.4H32.7524C35.6624 1114.55 38.5662 1114.01 41.2278 1112.82C42.2605 1112.14 43.0879 1111.19 43.6197 1110.08C44.1516 1108.96 44.3677 1107.72 44.2444 1106.49H44.5317ZM795.394 1001.28H737.934C736.46 1001.24 735.056 1000.64 734.013 999.595C732.97 998.55 732.368 997.143 732.332 995.666V730.558C732.366 729.067 732.963 727.644 734.003 726.576C735.042 725.508 736.447 724.874 737.934 724.801H806.455C852.424 724.801 887.762 749.268 887.044 793.165C887.044 826.412 855.009 847.712 843.948 852.03C859.699 855.238 873.921 863.646 884.339 875.91C894.756 888.174 900.766 903.584 901.409 919.674C901.983 979.547 844.523 1001.42 795.107 1001.28H795.394ZM775.714 844.258H788.356C795.291 844.955 802.295 844.165 808.902 841.941C815.51 839.716 821.569 836.109 826.678 831.358C831.787 826.607 835.828 820.821 838.533 814.385C841.238 807.949 842.546 801.01 842.368 794.029C842.368 762.509 816.08 747.973 788.93 747.973H775.714V844.258ZM794.389 977.388C826.279 977.388 854.435 959.541 854.291 919.818C854.148 880.095 825.561 867.142 790.654 867.142H775.714V976.812L794.389 977.388ZM624.163 409.176C621.819 426.687 621.481 444.408 623.157 461.996C623.157 465.162 626.03 465.018 627.467 465.018C630.625 465.183 633.789 465.183 636.948 465.018C638.097 465.018 640.539 465.018 640.539 461.996C640.539 449.187 640.539 422.993 640.539 410.615C642.263 394.496 627.467 387.731 624.163 409.176ZM878.568 1098.86L865.496 1067.2H853.142L872.678 1110.37C871.233 1111.59 869.563 1112.51 867.764 1113.07C865.965 1113.64 864.071 1113.85 862.192 1113.68V1124.33C865.996 1124.38 869.783 1123.8 873.397 1122.61C876.406 1121.03 879.058 1118.85 881.184 1116.2C883.31 1113.55 884.865 1110.49 885.751 1107.21L900.978 1067.48H888.911L878.568 1098.86ZM463.992 316.633C468.502 318.984 473.457 320.354 478.532 320.652C483.607 320.949 488.688 320.168 493.44 318.36C498.139 315.393 502.115 311.409 505.076 306.702C508.511 299.554 509.542 291.484 508.014 283.7C506.486 275.916 502.481 268.837 496.601 263.525C477.352 249.132 456.809 269.138 450.776 283.674C450.229 289.823 451.142 296.014 453.439 301.742C455.735 307.469 459.352 312.572 463.992 316.633V316.633ZM740.232 347.145C742.117 346.816 743.81 345.788 744.973 344.266C759.338 320.663 767.957 288.567 798.986 277.485C798.986 267.123 801.14 250.572 794.82 244.527C788.499 238.482 801.859 219.772 809.185 218.045C809.185 207.97 809.185 194.297 809.185 187.389C809.185 185.518 810.047 185.374 804.588 185.662C799.129 185.95 795.107 185.662 793.527 185.662C789.217 184.942 788.786 180.912 793.527 178.609C798.614 177.172 803.922 176.684 809.185 177.17C811.397 170.185 812.559 162.909 812.632 155.582C815.362 142.341 824.268 143.204 822.257 158.028C820.821 168.391 818.809 170.694 820.533 177.314C823.55 177.314 830.589 177.314 833.749 177.314C840.501 178.609 840.357 184.942 832.6 184.942C827.285 184.942 819.24 183.215 819.528 187.821C817.626 198.261 816.904 208.882 817.373 219.484V219.484C820.598 220.599 823.375 222.729 825.291 225.557C827.207 228.385 828.159 231.758 828.003 235.172C828.308 237.183 828.184 239.236 827.64 241.196C827.095 243.156 826.142 244.978 824.843 246.542C823.981 260.934 822.113 274.031 822.688 278.637C832.076 280.367 840.853 284.514 848.157 290.671C855.461 296.828 861.04 304.783 864.347 313.754C868.082 323.685 877.85 340.524 886.613 343.259C889.486 344.554 888.911 345.274 888.767 348.008C888.649 348.961 888.262 349.859 887.651 350.599C887.041 351.338 886.232 351.888 885.32 352.182C881.427 352.836 877.488 353.173 873.54 353.189C873.54 361.105 873.54 370.029 873.54 375.929C873.54 412.918 873.54 448.611 873.54 485.168C873.54 512.369 873.54 539.427 872.535 566.629C872.535 581.021 872.535 595.414 872.535 609.806C872.535 620.025 872.535 633.41 872.535 643.916C872.535 648.09 872.535 648.809 869.087 649.529C865.64 650.249 861.617 650.249 859.463 650.249C857.308 650.249 857.451 648.953 857.164 642.477C857.164 625.925 857.164 599.299 857.164 582.604C857.164 569.939 857.164 557.274 857.164 544.608C857.164 517.119 857.164 489.629 857.164 462.14C857.164 447.747 857.164 435.37 857.164 421.409C851.418 421.409 846.39 422.129 842.799 422.129H839.782V422.849C839.782 454.224 839.782 485.552 839.782 516.831L838.921 557.274C838.921 573.825 838.921 590.232 838.921 606.784C838.921 618.297 839.782 633.122 838.921 645.067C838.921 651.4 835.329 650.536 833.605 650.68C830.878 650.824 828.145 650.824 825.417 650.68C823.406 650.68 822.401 650.68 822.113 643.772C821.108 624.918 821.252 595.845 822.113 576.272C822.113 561.879 822.113 547.487 822.113 533.094C822.113 501.863 825.417 470.631 825.417 439.256C825.417 435.37 825.417 428.03 825.417 421.841C818.522 421.841 811.052 421.122 802.146 420.978C802.146 433.067 802.146 449.762 802.146 461.276C802.146 472.79 802.146 484.016 802.146 495.386C802.146 500.999 802.146 506.612 802.146 512.082C802.146 526.474 802.146 539.859 802.864 553.819C802.864 565.477 802.864 577.279 802.864 589.081C802.864 595.126 802.864 601.314 802.864 607.359C802.864 619.017 802.864 642.908 802.864 654.566C802.864 658.74 802.864 662.482 802.864 664.209C802.864 669.966 802.864 670.11 798.986 670.398H790.223C789.535 670.263 788.883 669.989 788.304 669.593C787.725 669.197 787.233 668.688 786.857 668.096C786.481 667.503 786.229 666.841 786.116 666.148C786.003 665.455 786.032 664.747 786.201 664.065C786.201 658.02 786.201 643.916 786.201 637.871C786.201 605.632 787.35 569.363 787.063 537.124C787.063 522.732 787.063 507.332 787.063 492.508C787.063 472.502 787.063 446.74 787.063 427.31C787.063 420.258 788.499 421.122 789.792 420.258H765.659C764.797 460.701 766.808 501.431 767.526 542.018C767.526 554.827 767.526 567.636 767.526 580.445C767.526 595.701 767.526 625.782 768.244 643.34C768.244 651.544 764.94 649.961 755.172 649.529C754.32 649.716 753.438 649.716 752.586 649.529C751.006 648.809 749.57 647.082 749.57 642.765C749.57 632.258 750.288 618.585 749.57 608.367V578.718V564.326C749.57 552.38 748.852 540.435 748.564 528.345C748.277 516.255 748.564 508.052 748.564 497.977C748.564 492.652 748.564 487.471 748.564 482.145C748.564 472.071 748.564 454.944 748.564 444.869C748.564 437.097 748.564 428.893 748.564 420.69C747.702 420.69 744.255 420.69 743.393 420.69C742.531 420.69 739.945 419.251 739.945 415.077C739.945 414.069 739.945 411.766 741.525 411.91H748.708C748.708 393.056 748.708 374.346 748.708 355.492V354.629H741.238C736.498 352.47 736.498 347.288 740.232 346.425V347.145ZM857.882 354.485C844.667 355.348 832.456 355.924 819.24 356.068C822.828 357.493 825.979 359.839 828.374 362.871C830.77 365.903 832.326 369.513 832.887 373.339C832.887 390.61 821.826 407.305 802.721 398.813C787.637 392.049 786.344 382.55 790.654 372.331C793.225 365.849 797.554 360.216 803.152 356.068C791.516 356.068 779.736 356.068 768.101 355.06C768.101 373.195 767.095 391.905 766.664 410.327H840.788C846.39 410.327 850.987 411.479 856.59 411.479V402.987C856.59 388.595 857.595 374.202 857.739 359.81L857.882 354.485ZM758.332 344.698C779.736 344.698 799.848 344.698 823.837 344.698C830.876 344.698 838.202 344.698 845.241 344.698H859.606C851.541 333.722 844.971 321.719 840.07 309.005C834.755 299.074 824.125 285.689 812.776 284.825C805.549 284.585 798.44 286.707 792.521 290.87C778.731 300.081 774.278 332.608 758.332 343.978V344.698ZM430.952 1056.11C429.47 1056.32 427.964 1055.94 426.757 1055.06C425.55 1054.17 424.736 1052.84 424.488 1051.36H416.587C416.933 1054.73 418.513 1057.85 421.02 1060.12C423.528 1062.38 426.785 1063.64 430.162 1063.64C433.54 1063.64 436.797 1062.38 439.304 1060.12C441.812 1057.85 443.391 1054.73 443.737 1051.36H436.698C436.434 1052.7 435.717 1053.9 434.67 1054.77C433.623 1055.63 432.31 1056.11 430.952 1056.11ZM807.748 1076.55H822.113V1123.33H834.036V1076.55H848.402V1067.2H807.748V1076.55ZM402.222 156.733C397.194 140.757 403.371 145.507 411.703 144.212C427.679 143.247 443.696 143.151 459.682 143.924C466.769 133.07 470.745 120.474 471.175 107.511C468.158 93.1186 464.998 64.3338 463.992 57.8572C462.268 46.6311 469.307 47.7825 473.186 47.3508C477.064 46.919 488.269 47.3508 496.313 45.4798C504.358 43.6087 526.767 36.5565 530.215 45.4798C532.37 45.4798 530.215 59.8722 533.088 62.031C535.961 64.1899 534.094 76.4234 531.221 77.5748C524.542 78.3898 517.789 78.3898 511.11 77.5748C500.446 76.7785 489.739 76.7785 479.075 77.5748C480.815 88.7289 481.918 99.9732 482.379 111.253C491.646 121.152 499.568 132.234 505.938 144.212C513.827 144.834 521.752 144.834 529.64 144.212C532.226 129.819 547.597 129.819 547.166 145.075C554.636 146.083 559.52 146.658 561.531 150.688C560.885 161.4 559.638 172.068 557.796 182.639C556.36 193.002 551.763 190.699 546.16 191.994C545.298 191.994 544.867 259.063 544.867 264.676C544.867 348.872 546.304 433.067 546.591 517.119C546.591 557.562 546.591 598.004 546.591 638.591C546.591 650.536 546.591 655.718 546.591 659.172C546.591 667.232 544.293 667.088 542.282 667.376C540.271 667.663 534.381 667.376 530.359 667.376C528.922 667.376 526.624 665.936 527.055 658.308C525.762 596.853 527.055 535.397 527.055 473.942C505.507 475.669 462.125 478.115 435.118 476.964C435.118 503.59 436.124 529.065 435.118 555.691C435.118 579.006 432.963 602.61 432.963 625.925C432.963 630.387 432.963 639.31 432.963 643.628C432.963 647.946 421.471 648.09 420.753 648.09C420.168 648.109 419.585 648.012 419.038 647.806C418.49 647.599 417.988 647.286 417.562 646.885C417.135 646.484 416.791 646.003 416.55 645.469C416.309 644.935 416.175 644.358 416.156 643.772C416.156 642.621 416.156 640.75 416.156 637.871C416.156 623.479 416.156 608.223 416.156 593.399C416.156 562.599 417.449 531.799 417.88 500.999V478.115H412.565C410.985 478.115 408.974 478.115 408.974 477.396C408.689 473.707 408.689 470.002 408.974 466.314C408.974 465.162 410.41 464.443 412.709 464.587H418.024C418.024 387.443 418.024 215.022 418.024 197.607C403.659 197.607 404.521 174.148 411.703 174.436C423.187 172.088 434.51 169.011 445.605 165.225C437.273 162.922 416.875 167.815 409.261 165.225C404.233 163.785 403.659 160.187 402.222 156.733ZM431.671 196.024C429.516 263.813 430.665 378.232 433.969 464.587H467.727V463.291C468.589 441.271 466.147 408.744 467.727 386.868C467.727 386.868 467.009 384.133 471.462 384.133H482.954C485.971 384.133 486.402 385.141 486.402 387.012C486.402 425.727 486.402 444.581 486.402 464.443H526.767C526.767 448.179 526.767 431.916 526.767 415.652C526.767 386.868 528.491 356.931 528.348 327.715C528.348 317.208 529.353 192.57 528.348 192.57C496.601 191.131 467.44 194.873 431.958 196.024H431.671ZM539.983 1113.97H544.867V1133.26H534.956V1123.33H504.645V1133.26H494.877V1113.97H497.894C501.195 1110.21 503.296 1105.55 503.927 1100.59C503.927 1096.99 505.363 1091.52 506.225 1084.47L508.38 1067.2H539.983V1113.97ZM528.348 1076.12H518.436L517.143 1083.75C517.143 1090.37 515.85 1095.55 515.132 1099.44C514.303 1104.7 512.125 1109.66 508.811 1113.83H527.917L528.348 1076.12ZM281.843 530.36C281.843 515.967 277.246 508.915 272.075 509.203C266.903 509.491 261.301 512.801 260.008 527.913C260.008 588.217 257.997 527.913 257.853 614.268C257.853 620.888 257.853 636.864 257.853 643.052C257.853 646.794 259.29 647.37 260.439 647.514H276.528C279.688 647.514 280.263 647.514 280.406 643.484C280.55 639.454 280.406 639.886 280.406 633.697C280.837 608.223 282.274 556.266 281.843 530.36ZM300.086 1076.55H314.452V1123.33H326.375V1076.55H340.74V1067.2H300.086V1076.55ZM259.721 1107.06V1067.2H247.941V1123.33H262.306L280.119 1083.46V1123.33H291.755V1067.2H277.39L259.721 1107.06ZM326.662 532.519C326.662 516.975 320.772 507.908 314.595 509.491C308.418 511.074 305.258 515.967 303.678 529.928C303.678 559.576 302.385 614.555 302.529 642.189C301.523 648.234 306.263 647.514 308.131 647.514C309.998 647.514 323.214 648.234 325.082 648.234C326.949 648.234 327.524 648.234 327.524 644.06C327.524 639.886 327.524 638.447 327.524 632.69C327.524 620.6 327.236 548.35 326.662 532.519ZM420.035 1106.78V1067.2H408.256V1123.33H422.621L440.29 1083.46V1123.33H452.069V1067.2H437.704L420.035 1106.78ZM362.575 1106.78V1067.2H350.795V1123.33H365.16L382.829 1083.46V1123.33H394.609V1067.2H380.244L362.575 1106.78ZM406.532 916.364C407.825 986.455 346.198 1001.14 297.932 1001.14H249.09C247.605 1001.14 246.18 1000.54 245.129 999.491C244.078 998.439 243.488 997.011 243.488 995.522V730.558C243.469 729.809 243.6 729.064 243.873 728.366C244.146 727.668 244.555 727.032 245.077 726.496C245.599 725.959 246.224 725.533 246.913 725.242C247.602 724.951 248.342 724.801 249.09 724.801H281.125C281.873 724.801 282.613 724.951 283.302 725.242C283.991 725.533 284.616 725.959 285.138 726.496C285.66 727.032 286.069 727.668 286.342 728.366C286.615 729.064 286.746 729.809 286.727 730.558V837.062H297.932C348.209 837.35 405.526 855.052 406.532 916.364ZM361.569 917.228C361.569 877.361 325.8 860.522 297.932 860.522H287.302V977.244H298.506C306.679 977.871 314.892 976.773 322.615 974.021C330.338 971.269 337.399 966.925 343.342 961.269C349.286 955.613 353.978 948.771 357.118 941.185C360.257 933.599 361.774 925.438 361.569 917.228V917.228ZM240.04 476.532C240.04 539.427 237.167 600.595 234.294 663.634C234.404 664.035 234.42 664.457 234.342 664.866C234.264 665.275 234.094 665.661 233.845 665.994C233.595 666.328 233.273 666.599 232.903 666.789C232.533 666.978 232.124 667.08 231.709 667.088C228.373 667.512 225.016 667.752 221.653 667.807C220.791 667.807 218.206 667.807 218.349 663.777C219.929 612.828 221.653 560.872 221.653 509.779C221.653 498.265 222.515 488.766 222.515 477.396H215.476C213.752 477.396 210.879 478.259 210.879 475.093V469.768C210.879 465.882 219.355 467.033 222.659 467.321C224.095 413.637 224.67 359.234 222.659 304.255H218.493C217.2 304.255 213.609 304.255 212.603 297.635C212.603 296.771 212.603 293.461 214.327 293.605H222.659C222.659 253.45 222.659 219.628 222.659 204.66C219.63 184.045 220.165 163.062 224.239 142.628C227.256 132.698 234.438 140.326 236.449 149.249C238.46 158.172 240.902 170.694 242.913 181.2C245.111 177.799 246.85 174.121 248.085 170.262C251.356 162.344 256.278 155.217 262.521 149.359C268.764 143.501 276.184 139.048 284.285 136.296C284.285 125.358 284.285 110.389 285.434 103.049C285.434 92.6868 280.694 90.3841 284.572 82.9C287.057 79.578 290.311 76.9108 294.053 75.1281C294.75 64.4702 294.414 53.7697 293.048 43.177C293.048 39.0032 286.296 40.0106 281.412 39.8667C276.528 39.7228 274.804 32.5266 281.412 31.6631C285 31.4547 288.597 31.4547 292.186 31.6631V31.6631C292.186 31.434 292.276 31.2144 292.438 31.0524C292.6 30.8905 292.819 30.7995 293.048 30.7995C294.197 25.4395 294.197 19.8961 293.048 14.5361C291.755 0.71938 300.23 -0.000240802 301.667 12.3772C301.264 18.8891 301.747 25.4256 303.103 31.807C307.747 31.6667 312.375 32.3989 316.75 33.9658C320.485 36.2686 319.91 41.0181 315.888 41.5938C314.452 41.5938 311.004 40.8742 307.125 41.5938C303.247 42.3134 303.103 41.5938 302.959 42.8891C302.959 49.0779 302.098 63.6142 301.667 74.2646C304.228 74.9846 306.583 76.2984 308.544 78.0997C310.504 79.9009 312.014 82.1391 312.951 84.6332C313.888 87.1273 314.226 89.8073 313.937 92.4565C313.649 95.1058 312.743 97.6498 311.291 99.883C307.413 104.489 308.418 102.186 308.418 109.526C308.418 112.836 308.418 124.926 308.418 135.001C327.568 142.261 343.407 156.286 352.95 174.436C352.95 161.051 352.232 146.371 352.95 131.258C353.668 116.146 364.155 118.449 366.022 131.258C368.795 149.76 370.521 168.404 371.194 187.101C374.022 187.081 376.836 187.518 379.525 188.396C381.536 189.26 381.106 194.153 379.525 195.593C377.128 198.214 374.186 200.278 370.906 201.637C370.906 229.127 370.906 263.237 370.906 290.295H377.227C380.531 290.295 380.387 293.173 380.1 295.476C380.03 296.355 379.64 297.178 379.005 297.788C378.369 298.398 377.532 298.754 376.652 298.786H371.05C371.05 384.421 371.05 537.412 371.05 543.457C371.05 549.502 371.05 557.849 371.05 565.621C371.05 569.507 371.05 609.806 371.05 613.692C371.05 621.032 371.05 633.553 371.05 640.894C371.05 644.204 372.63 648.522 368.608 648.522H351.801C349.502 648.522 349.215 648.522 349.071 646.075C347.204 597.86 349.071 569.651 349.071 533.094C349.071 530.504 349.071 507.188 349.071 474.517C313.302 476.82 275.666 476.676 240.04 476.532ZM262.881 190.267H329.104C327.784 178.794 322.736 168.073 314.739 159.755C310.288 155.347 304.585 152.428 298.412 151.397C292.239 150.366 285.899 151.275 280.263 153.998C273.136 158.225 267.971 165.108 265.898 173.14C264.563 178.786 263.556 184.505 262.881 190.267ZM241.908 292.022H264.461C264.461 278.925 267.765 263.237 267.478 249.564C267.478 238.77 272.218 231.717 276.384 231.286C280.55 230.854 283.567 237.187 283.71 246.542C283.71 258.919 282.848 278.781 282.561 291.878H311.291C311.291 278.925 312.009 263.093 312.153 249.996C312.153 240.353 314.452 235.603 319.479 235.603C324.507 235.603 328.098 242.224 327.667 251.723C327.667 268.562 326.375 280.508 326.231 291.446H353.381C353.381 258.056 354.674 233.876 354.674 231.574C354.674 223.37 354.674 212.576 354.674 202.789C351.709 203.02 348.732 203.02 345.767 202.789C309.475 206.789 272.814 205.966 236.736 200.342C237.742 215.886 241.333 250.14 241.908 292.022ZM280.406 466.889H305.689C305.689 465.162 305.689 462.284 305.689 456.239C305.689 444.005 307.844 379.959 308.418 364.703C308.418 341.675 326.231 332.176 327.955 362.257C327.955 397.086 326.375 427.31 327.236 466.458H349.071C349.79 434.65 351.37 396.079 351.657 359.378C351.657 339.948 352.806 321.094 353.094 301.808C316.463 303.248 278.539 301.809 241.908 303.823C241.908 358.371 240.184 412.918 240.04 467.465H261.157C261.157 458.254 261.157 448.899 261.157 439.544C261.157 357.075 261.157 412.774 261.157 355.636C262.594 340.38 267.19 339.517 271.5 340.092C275.809 340.668 280.119 344.842 279.688 358.083C279.688 382.55 280.694 431.628 280.55 456.383C280.406 462.716 280.55 465.306 280.406 466.889ZM607.643 662.05C607.643 667.376 605.488 667.376 603.333 667.663C599.522 668.207 595.653 668.207 591.841 667.663C587.819 667.663 585.664 666.08 585.664 660.899C585.664 658.596 585.664 652.695 585.664 646.507C585.664 605.2 585.664 563.75 585.664 522.3C585.664 491.356 585.664 460.557 585.664 429.469C585.664 404.858 585.664 380.247 586.382 355.78C586.382 340.092 586.382 317.64 586.382 301.952C583.797 301.952 578.625 301.952 576.758 301.952C574.89 301.952 575.465 301.952 575.321 301.089C574.617 300.266 574.173 299.252 574.045 298.176C573.917 297.1 574.112 296.01 574.603 295.044C574.603 293.605 574.603 293.173 576.758 292.166C580.848 289.773 584.336 286.475 586.957 282.523V244.671C586.957 234.308 598.593 233.445 598.593 247.693L600.029 264.532C623.588 222.506 636.086 195.593 637.379 149.393C637.379 137.591 639.821 120.608 650.163 117.298C649.302 113.124 652.318 77.4309 651.025 75.7038C647.462 76.3362 643.815 76.3362 640.252 75.7038C632.925 74.6963 629.334 67.6441 637.809 67.0684C642.694 67.0684 643.986 67.0684 652.175 66.3487C650.594 63.902 650.594 62.3189 652.175 53.3956C654.473 37.5639 661.225 44.0405 661.799 54.403C661.799 62.031 661.799 65.4852 662.805 66.4927C665.88 65.8089 669.067 65.8089 672.142 66.4927C680.33 69.2272 681.767 73.6889 673.435 74.8403C670.418 74.8403 662.517 75.7038 662.374 76.9991C662.23 78.2944 658.352 113.124 658.352 115.139C665.247 116.578 677.888 115.139 679.612 131.402C680.161 137.068 678.904 142.762 676.021 147.666C672.596 185.857 679.911 224.246 697.137 258.487L699.579 247.261C701.734 237.043 713.083 236.323 711.933 250.572C711.933 255.177 711.071 268.994 710.64 279.356C713.09 284.584 717.317 288.767 722.563 291.158C726.011 292.166 723.713 298.354 720.409 299.218C717.105 300.081 714.232 300.801 710.353 301.377C710.353 328.003 708.055 363.408 708.342 390.034C708.342 409.176 708.342 428.174 708.342 447.604C708.342 476.388 710.209 505.173 710.209 533.958H718.254C720.552 533.958 722.563 533.958 722.42 536.261C722.634 538.895 722.634 541.542 722.42 544.177C722.42 544.896 720.265 545.328 717.823 545.04C715.381 544.752 716.099 545.04 711.502 545.04C711.502 568.212 713.37 620.025 713.226 632.978C713.226 640.75 713.226 644.06 713.226 646.219C713.226 652.839 709.922 651.544 708.629 651.544C707.336 651.544 699.148 650.824 696.706 651.544C694.264 652.264 693.546 650.249 693.402 644.204C693.402 611.245 693.402 578.287 693.402 545.328H607.212C607.212 558.857 608.505 572.53 608.505 586.059C607.068 592.391 607.93 653.559 607.643 662.05ZM605.775 288.855C611.277 289.18 616.793 289.18 622.295 288.855C624.36 282.707 628.259 277.343 633.466 273.488C638.672 269.633 644.935 267.473 651.407 267.3C657.879 267.127 664.248 268.95 669.652 272.522C675.056 276.094 679.235 281.243 681.623 287.272C682.772 288.999 682.628 289.431 684.783 289.863C687.731 290.368 690.742 290.368 693.69 289.863C670.295 253.457 657.189 211.378 655.766 168.103C655.766 162.922 647.721 164.505 647.578 171.269C642.069 212.888 627.822 252.865 605.775 288.567V288.855ZM605.775 534.246C627.323 534.246 670.562 533.526 691.966 534.246C691.966 505.461 691.966 476.676 691.966 447.891C691.966 429.037 691.966 410.039 691.966 391.185C691.966 367.438 691.966 328.147 691.966 304.831C686.077 305.794 680.12 306.276 674.153 306.27C671.99 306.516 669.806 306.061 667.919 304.974C666.032 303.886 664.542 302.222 663.667 300.225C647.578 268.85 637.235 287.992 628.329 300.225C627.195 301.323 625.837 302.161 624.35 302.683C622.862 303.204 621.279 303.397 619.709 303.248C613.389 303.248 605.344 303.248 600.46 303.248C601.322 331.169 601.322 374.058 600.46 402.843C600.46 424.432 601.897 446.02 601.753 467.465C601.609 488.91 604.052 509.923 605.344 533.958L605.775 534.246ZM190.194 1067.2H178.414L166.204 1089.5H159.74V1067.2H147.817V1123.33H159.74V1098.43H165.917L178.558 1123.33H191.774L175.972 1092.81L190.194 1067.2ZM560.669 1095.98C560.319 1099.75 559.743 1103.5 558.945 1107.21C558.759 1108.9 558.003 1110.48 556.802 1111.68C555.601 1112.88 554.026 1113.64 552.337 1113.83V1124.33C556.141 1124.36 559.846 1123.12 562.864 1120.8C565.882 1118.48 568.042 1115.21 569.001 1111.53C570.365 1106.53 571.326 1101.42 571.874 1096.27L574.029 1076.12H587.101V1123.04H599.024V1066.91H564.117L560.669 1095.98ZM132.015 1113.97H136.899V1133.26H127.131V1123.33H96.8206V1133.26H86.9087V1113.97H89.9254C93.2811 1110.25 95.3907 1105.57 95.9587 1100.59C95.9587 1096.99 97.3952 1091.52 98.2571 1084.47L100.556 1067.2H132.159L132.015 1113.97ZM120.379 1076.12H110.467L109.749 1083.75C109.749 1090.37 108.456 1095.55 107.594 1099.44C106.827 1104.69 104.697 1109.65 101.417 1113.83H120.379V1076.12ZM698.574 1071.51C694.964 1074.33 692.042 1077.93 690.033 1082.04C688.023 1086.16 686.978 1090.68 686.978 1095.26C686.978 1099.84 688.023 1104.36 690.033 1108.48C692.042 1112.6 694.964 1116.2 698.574 1119.01C702.743 1121.6 707.507 1123.09 712.411 1123.31C717.315 1123.54 722.195 1122.5 726.586 1120.3V1110.09C723.762 1111.81 720.572 1112.83 717.277 1113.08C713.982 1113.33 710.674 1112.8 707.624 1111.53C704.802 1109.9 702.496 1107.52 700.97 1104.64C699.445 1101.76 698.764 1098.51 699.005 1095.26C698.76 1092.07 699.443 1088.88 700.973 1086.07C702.503 1083.26 704.813 1080.95 707.624 1079.43C710.67 1078.17 713.967 1077.63 717.256 1077.85C720.545 1078.08 723.738 1079.06 726.586 1080.73V1070.07C722.183 1067.9 717.296 1066.89 712.393 1067.14C707.489 1067.39 702.731 1068.9 698.574 1071.51V1071.51ZM190.05 724.801H77.5714C70.1016 724.801 68.5214 728.687 68.2341 733.581C68.3608 775.186 65.9622 816.761 61.0516 858.075C54.3 907.873 41.946 953.497 12.0667 959.829C5.31507 961.268 4.02222 963.859 4.02222 969.76V993.795C4.02222 999.552 6.17698 1001.57 11.3484 1001.71C52.2889 999.408 75.1294 964.291 84.754 903.123C91.5579 851.826 95.1562 800.152 95.5278 748.405H152.27V995.522C152.306 996.999 152.908 998.406 153.951 999.451C154.994 1000.5 156.398 1001.1 157.872 1001.14H190.05C191.524 1001.1 192.928 1000.5 193.971 999.451C195.014 998.406 195.616 996.999 195.652 995.522V730.558C195.653 729.056 195.067 727.613 194.02 726.538C192.974 725.462 191.549 724.839 190.05 724.801V724.801ZM233.145 1071.66C235.167 1073.26 236.771 1075.32 237.822 1077.68C238.873 1080.04 239.338 1082.61 239.179 1085.19C239.389 1087.88 238.965 1090.59 237.942 1093.09C236.92 1095.58 235.326 1097.81 233.289 1099.58C228.622 1102.95 222.946 1104.63 217.2 1104.33H210.879V1123.47H198.956V1067.34H216.194C222.21 1066.88 228.211 1068.39 233.289 1071.66H233.145ZM226.968 1085.19C226.968 1079 223.377 1075.83 216.051 1075.83H210.879V1095.41H216.194C219.055 1095.54 221.882 1094.73 224.239 1093.1C225.252 1092.06 226.032 1090.82 226.527 1089.46C227.023 1088.09 227.222 1086.64 227.112 1085.19H226.968ZM632.063 1067.2H650.02V1123.33H637.809V1102.6H630.052L620.284 1123.33H607.212L619.279 1100.44C616.158 1099.32 613.487 1097.21 611.672 1094.43C609.857 1091.65 608.997 1088.36 609.223 1085.04C609.047 1082.53 609.463 1080.01 610.435 1077.68C611.408 1075.36 612.912 1073.29 614.825 1071.66C619.907 1068.27 625.98 1066.7 632.063 1067.2V1067.2ZM632.063 1075.69C624.881 1075.69 621.29 1078.85 621.29 1085.19C621.197 1086.41 621.382 1087.65 621.83 1088.79C622.277 1089.94 622.976 1090.97 623.875 1091.81C625.697 1093.4 628.066 1094.23 630.483 1094.11H637.522V1075.69H632.063ZM676.595 724.801H644.417C642.919 724.839 641.494 725.462 640.447 726.538C639.4 727.613 638.815 729.056 638.815 730.558V995.522C638.851 996.999 639.453 998.406 640.496 999.451C641.539 1000.5 642.943 1001.1 644.417 1001.14H676.595C678.07 1001.1 679.473 1000.5 680.516 999.451C681.559 998.406 682.161 996.999 682.198 995.522V730.558C682.198 729.056 681.612 727.613 680.566 726.538C679.519 725.462 678.094 724.839 676.595 724.801V724.801Z" fill="white"/>
</svg>
